<?xml version="1.0" encoding="utf-8"?>
<!-- Generator: Adobe Illustrator 26.0.0, SVG Export Plug-In . SVG Version: 6.00 Build 0)  -->
<svg version="1.1" xmlns="http://www.w3.org/2000/svg" xmlns:xlink="http://www.w3.org/1999/xlink" x="0px" y="0px"
	 viewBox="0 0 750 500" style="enable-background:new 0 0 750 500;" xml:space="preserve">
<style type="text/css">
	.st0{fill:#FFF6F3;}
	.st1{fill:#FEF6F3;}
	.st2{fill:#FEDBD0;}
	.st3{fill:#DAF1FF;}
	.st4{fill:#548099;}
	.st5{fill:#56819B;}
	.st6{fill:#B2CDDD;}
	.st7{fill:#54809A;}
	.st8{fill:#5D859D;}
	.st9{fill:#FFDBD0;}
	.st10{fill:#FEDAD0;}
	.st11{fill:#57829B;}
	.st12{fill:#5C869F;}
	.st13{fill:#5E879F;}
	.st14{fill:#B4CFDE;}
	.st15{fill:#FFDCD2;}
	.st16{fill:#FCDACF;}
	.st17{fill:#648CA3;}
	.st18{fill:#6F92A7;}
	.st19{fill:#89A4B5;}
	.st20{fill:#B7D0DE;}
	.st21{fill:#FCF4F2;}
	.st22{fill:#FDFDFE;}
	.st23{fill:#EDD1CA;}
</style>
<g id="BACKGROUND">
</g>
<g id="OBJECTS">
	<g>
		<path class="st0" d="M362.36,500c-0.04-0.81,105.06,1.42,105.07,0c0.03-5.58-28.49-33.12-45.72-47.45
			c-2.04-1.7-4.11-3.35-6.21-4.98c0.01-0.01,0.02-0.01,0.03-0.02c0.5-0.31,0.8-0.93,1.18-1.41c-0.35,0.12-0.76,0.15-1.03,0.36
			c-0.33,0.26-0.64,0.41-0.95,0.47c-1.34-1.03-2.68-2.05-4.04-3.05c-2.18-1.97-4.61-3.67-6.64-5.86c-3.05-3.29-7.13-5.55-11.08-7.76
			c-3.36-1.88-6.92-3.39-10.38-5.09c-4.54-2.23-9.17-4.3-13.56-6.8c-3.41-1.94-6.5-4.43-9.74-6.67c-0.05-0.04-0.07-0.13-0.1-0.2
			c-0.88,1.07-12.64-7.62-12.56-8.05c-0.33-0.56-0.57-1.21-1.01-1.66c-2.64-2.73-5.16-5.49-7.11-8.82
			c-1.81-3.08-3.54-6.17-4.98-9.44c-2.45-5.53-3.48-11.34-3.48-17.35c0-2.22,0.31-4.45,0.41-6.68c0.1-2.21-0.08-4.45,0.23-6.62
			c0.45-3.14,0.74-6.24,0.25-9.4c-0.1-0.64,0.12-1.32,0.19-1.99c0.08-0.81,0.32-1.65,0.2-2.43c-0.36-2.27-0.76-4.54-1.34-6.76
			c-0.42-1.64-1.24-3.17-1.69-4.81c-1.12-4.07-3.73-7.32-6.85-9.67c-4.84-3.64-10.18-6.58-16.16-8.26
			c-2.55-0.72-5.12-1.06-7.67-1.23c-4.27-0.29-8.57-0.14-12.84,0.38c-1.1,0.13-2.2,0.33-3.31,0.43c-2.3,0.19-4.63,0.13-6.89,0.54
			c-5.55,1.01-11.07,2.15-16.57,3.38c-3.99,0.89-7.92,2.04-11.89,3.01c-1.73,0.42-3.51,0.61-5.23,1.05
			c-5.9,1.48-11.78,3.01-17.67,4.52c-1.51,0.39-3.02,0.76-4.51,1.18c-2.2,0.62-4.38,1.32-6.59,1.9c-0.92,0.24-1.91,0.23-2.86,0.39
			c-2.84,0.5-5.65,1.32-8.51,1.48c-3.18,0.18-6.39-0.24-9.59-0.41c-0.29-0.02-0.58-0.13-0.86-0.23c-3.55-1.26-7.11-2.38-10.45-4.25
			c-4.03-2.25-7.5-5.11-10.67-8.39c-3.58-3.7-7.16-7.38-10.67-11.14c-2.83-3.02-6.13-5.43-9.53-7.72c-1.04-0.7-2.17-1.25-3.25-1.89
			c-3.2-1.86-6.25-3.97-9.76-5.28c-2.22-0.83-4.4-1.78-6.49-2.89c-2.62-1.39-5.39-2.22-8.25-2.89c-3.42-0.8-6.84-1.34-10.36-1.11
			c-1.71,0.11-3.48-0.18-5.15,0.11c-3.42,0.6-6.69,1.85-10.17,2.33c-2.09,0.29-4.09,1.29-6.12,1.99c-1.32,0.46-2.64,0.96-3.95,1.46
			c-3.27,1.23-6.68,2.18-9.77,3.77c-5.28,2.71-10.39,5.75-15.5,8.77c-3.48,2.06-6.84,4.31-10.24,6.49
			c-2.24,1.44-4.45,2.94-6.71,4.36c-2.31,1.45-4.57,3.03-7.02,4.19c-5.75,2.74-11.61,5.26-17.41,7.88
			c-0.81,0.37-1.53,0.98-2.36,1.25c-3.96,1.28-7.98,2.37-11.89,3.76c-1.52,0.54-2.98,0.9-4.56,0.8L0,500H362.36z"/>
		<path class="st1" d="M679.52,286c-4.48-0.04-8.89-0.75-13.32-1.29c-5.84-0.71-11.19-2.96-16.66-4.76
			c-3.97-1.3-7.65-3.54-11.35-5.56c-2.25-1.22-4.26-2.86-6.43-4.24c-3.42-2.17-6.15-5.04-8.61-8.21c-0.2-0.26-0.44-0.5-0.68-0.73
			c-3.43-3.22-5.79-7.17-7.81-11.37c-0.21-0.45-0.51-0.86-0.79-1.26c-3-4.26-4.76-9.07-6.05-14.05c-0.66-2.55-0.89-5.21-1.32-7.81
			c-0.05-0.33-0.04-0.68-0.17-0.98c-1.37-3.23-1.32-6.63-1.35-10.05c-0.04-4.15-0.29-8.29-0.48-12.43
			c-0.14-2.98-0.71-5.99-0.41-8.93c0.86-8.65,0.32-17.3,0.37-25.94c0.03-4.87-0.95-9.62-2.78-14.24c-1.41-3.57-3.28-6.72-6.07-9.25
			c-2.88-2.62-5.84-5.19-9.02-7.41c-1.92-1.34-4.27-2.16-6.54-2.86c-3.61-1.11-7.29-2.07-11-2.81c-2.98-0.6-5.91-1.73-9.05-1.34
			c-0.46,0.06-0.96-0.18-1.44-0.28c-1.03-0.23-2.04-0.57-3.08-0.67c-4.44-0.42-8.87-0.84-13.19-2.08c-1.78-0.51-3.72-0.48-5.53-0.93
			c-4.99-1.21-9.96-2.49-14.91-3.85c-5.97-1.63-11.52-4.3-16.66-7.67c-3.42-2.24-6.84-4.54-9.29-8.06
			c-1.97-2.83-4.51-5.26-6.64-7.98c-2.37-3.03-3.8-6.58-5.3-10.1c-2.23-5.25-2.84-10.84-3.94-16.33c0.98,0.13,1.96,0.27,2.94,0.39
			c2.87,0.36,5.75,1.08,8.61,0.98c4.78-0.18,9.53-1.18,14.31-1.3c5.31-0.13,10.06-2.09,14.87-3.82c4.82-1.73,9.48-3.91,14.17-6
			c3.24-1.44,6.41-3.03,9.6-4.57c1.84-0.89,3.68-1.8,5.52-2.7c1.5,1.52,2.57,1.73,4.31,0.98c1.78-0.77,2.24-2.21,2.12-3.97
			c3.38-0.99,6.76-1.99,10.15-2.95c0.94-0.26,1.92-0.38,2.88-0.57c0.22,1.37,0.61,2.64,2.21,2.96c1.57,0.31,2.85-0.41,3.64-1.63
			c0.5-0.77,0.48-1.87,0.69-2.82c2.24-0.13,4.47-0.27,6.71-0.4c-0.38,0.9-0.93,1.77-1.1,2.72c-0.23,1.33,1.03,3.1,2.38,3.41
			c1.18,0.27,2.17-0.33,2.72-1.32c0.58-1.06,0.91-2.26,1.36-3.4c0.96-0.38,1.91-0.37,2.87,0.06c2.26,1.01,4.54,2.01,6.8,3.01
			c-0.28,0.59-0.59,1.17-0.85,1.77c-0.46,1.03-0.63,2.08,0.28,2.96c0.93,0.9,1.95,1.35,3.33,0.88c1.44-0.48,2.34-1.44,3.03-2.69
			c5.02,0.37,9.85,1.86,14.9,2.2c5.48,0.37,10.8,0.3,16.2-0.89c3.99-0.87,7.78-1.94,11.23-4.14c3.89,0.63,7.74,0.49,11.54-0.67
			c4.75-1.46,9.46-2.98,13.84-5.38c0.86-0.47,1.82-0.75,2.74-1.12c0.26,2.16,1.95,3.44,3.28,4.81c4.17,4.33,8.92,8,14.02,11.21
			c0.74,0.47,1.63,0.69,2.45,1.03c-0.07,1.73-0.24,3.47-0.16,5.19c0.04,0.72,0.43,1.71,0.98,2.07c2.6,1.71,5.34,2.61,8.12,0.28
			c0.72-0.61,1.39-1.28,2.08-1.92c4.31,0.78,8.61,1.55,12.92,2.33c-0.08,0.41-0.11,0.84-0.26,1.22c-2.49,6.25-3.13,12.84-3.47,19.47
			c-0.22,4.33-0.08,8.65,1.57,12.74c2.2,5.45,4.89,10.62,8.75,15.11c3.55,4.14,7.97,6.91,13.21,8.37c1.91,0.53,3.83,1.06,5.77,1.46
			c2.24,0.46,4.5,0.78,6.75,1.16c0,38.67,0,77.33,0,116c-1.81,1.78-3.61,3.57-5.43,5.34c-0.93,0.91-1.89,1.78-2.84,2.67
			c-0.29,0.27-0.65,0.5-0.87,0.82c-2.62,3.89-6.1,6.92-9.68,9.88c-2.09,1.72-3.94,3.75-6.03,5.48c-4.13,3.41-8.31,6.76-13.19,9.1
			c-2.25,1.08-4.32,2.56-6.64,3.43c-2.69,1.01-5.56,1.54-8.36,2.28c-1.05-1.15-2.05-2.36-3.17-3.44c-2.36-2.29-6.07-2.75-8.97-1.22
			c-2.59,1.37-4.7,3.1-4.99,6.29C679.82,285.76,679.63,285.88,679.52,286z M680.14,63.07l-0.08,0.04c-1.07-0.04-1.13,0.61-0.97,1.42
			c-0.09,0.09-0.16,0.2-0.19,0.33c-1.63,2-1.61,3.02,0.11,4.62c0.55,0.97,1.08,1.97,2.37,2.1c0.86,1.31,1.99,0.98,3.14,0.51
			c1.88,0.01,3.02-1.15,4.01-2.54c1.03-0.97,2.02-3.71,1.68-4.78c-0.06-0.18-0.37-0.28-0.56-0.42c-0.15-0.17-0.3-0.33-0.45-0.5
			c-0.45-0.96-0.74-2.14-2.25-1.68c-0.14-0.08-0.29-0.13-0.45-0.16c-1.18-1.21-2.39-1.27-4.23-0.21c-0.41,0.1-0.82,0.21-1.23,0.31
			C680.74,62.43,680.44,62.75,680.14,63.07z M687.95,258.66c0-0.67,0.15-1.38-0.03-1.98c-0.31-1.02-0.85-1.98-1.28-2.97
			c-0.68-1.55-3.15-2.9-4.81-2.57c-2.23,0.44-4.31,1.14-5.79,3.05c-0.5,0.65-1.16,1.19-1.82,1.7c-1.05,0.81-1.4,1.78-1,3.06
			c0.17,0.55,0.21,1.13,0.28,1.71c0.49,4.02,3.95,6.61,7.87,5.77c1.26-0.27,2.8-0.47,3.62-1.29
			C686.7,263.41,688.14,261.35,687.95,258.66z M674.98,277.9c0-0.5,0.06-1-0.01-1.49c-0.38-2.88-2.13-4.24-4.99-3.87
			c-0.65,0.08-1.3,0.27-1.91,0.53c-2.05,0.86-3.77,3.28-3.52,5.15c0.39,2.89,2.64,4.96,6.2,4.8
			C673.21,282.9,674.99,280.79,674.98,277.9z M527.34,84.38c-2.97-1.3-6.38-0.5-8.31,1.9c-0.25,0.3-0.43,0.71-0.5,1.1
			c-0.51,2.78,1.07,4.58,3.86,4.67c1.37,0.04,2.34-0.45,3.25-1.4C527.33,88.88,527.87,86.86,527.34,84.38z M534.51,93.4
			c-0.01,2.2,1.71,4.08,3.74,4.08c1.92,0.01,3.66-1.67,3.74-3.6c0.09-2.07-1.49-3.9-3.32-3.87
			C535.75,90.07,534.52,91.07,534.51,93.4z M532.28,81.99c2.02,0,3.69-1.75,3.72-3.91c0.03-1.94-1.21-3.51-2.79-3.52
			c-2.42-0.02-4.25,1.82-4.19,4.23C529.05,80.24,530.83,81.99,532.28,81.99z M592.03,68.51c1.95-0.01,3.69-1.83,3.67-3.84
			c-0.01-1.52-1.28-2.73-2.91-2.76c-1.6-0.03-4.1,2.27-4.04,3.72C588.81,67.45,590.04,68.52,592.03,68.51z M581.21,75.49
			c1.54-0.03,3.13-1.55,3.09-2.96c-0.04-1.54-1.9-3.35-3.45-3.35c-1.61,0-3.23,1.67-3.14,3.25
			C577.81,74.28,579.23,75.52,581.21,75.49z M566.91,56.35c-0.03-1.63-1.07-3.01-2.28-3.02c-1.93-0.02-3.58,1.67-3.58,3.65
			c0.01,1.97,1.01,3.08,2.76,3.06C565.7,60.01,566.95,58.53,566.91,56.35z M638.85,106.44c2.33-0.06,4.11-1.44,4.47-3
			c0.32-1.42,0.05-1.96-1.28-2.52c-1.49-0.63-3.44,0.01-4.58,1.49c-0.72,0.93-1.01,2-0.23,2.94
			C637.74,105.95,638.6,106.27,638.85,106.44z M652.61,100.3c-1.86-0.04-3.52,1.56-3.53,3.41c-0.02,1.56,0.82,2.45,2.4,2.55
			c1.9,0.12,3.89-1.82,3.84-3.74C655.28,101.14,654.3,100.33,652.61,100.3z M569.72,73.14c0.01-1.54-1.27-2.85-2.8-2.85
			c-1.72,0-3.22,1.71-3.24,3.69c-0.01,1.27,1.21,2.65,2.36,2.66C568.08,76.66,569.7,75.13,569.72,73.14z M555.28,62.95
			c-1.78,0.04-2.84,1.17-2.82,3.01c0.01,1.7,1.13,2.66,3.15,2.69c1.6,0.03,2.95-1.38,2.89-3.02
			C558.43,64.05,557.07,62.91,555.28,62.95z M645.86,94.2c1.77,0.2,3.45-1.03,3.6-2.61c0.14-1.5-0.83-2.62-2.47-2.83
			c-1.68-0.22-3.34,1.12-3.47,2.8C643.4,93,644.31,94.03,645.86,94.2z M575.49,67.4c1.71,0.03,3-1.25,2.98-2.95
			c-0.01-1.38-1.35-2.85-2.58-2.84c-1.59,0.01-2.95,1.41-2.96,3.06C572.92,66.31,573.91,67.37,575.49,67.4z M578.98,56.35
			c0.05-1.65-0.75-2.67-2.19-2.77c-1.82-0.13-3.2,1.14-3.23,2.98C573.53,58.12,574.41,59,576,59
			C577.74,59,578.93,57.94,578.98,56.35z M700,169.28c-0.02,1.64,1.01,2.71,2.57,2.7c1.5-0.02,2.75-1.37,2.72-2.95
			c-0.03-1.56-1.06-2.21-3.13-2.38C700.71,166.53,700.21,167.24,700,169.28z M588.61,60.02c1.42-0.05,2.79-1.35,2.77-2.63
			c-0.02-1.46-1.31-2.85-2.59-2.81c-1.38,0.05-3.18,1.76-3.17,3.03C585.62,58.77,587.23,60.06,588.61,60.02z"/>
		<path class="st2" d="M623,500c-63.83,0-127.67,0-191.5,0c0.11-1.4,0.04-2.84,0.36-4.19c0.78-3.2,1.71-6.35,2.64-9.51
			c0.6-2.06,1.08-4.19,1.98-6.13c2.32-5.01,3.54-10.48,6.47-15.24c0.13-0.2,0.18-0.47,0.21-0.72c0.16-1.56,1.2-2.67,1.94-3.95
			c1.59-2.73,3.48-5.23,5.48-7.67c1.13-1.39,2.09-2.92,3.13-4.38c0.88,0.77,1.79,1.49,2.63,2.3c3.6,3.49,7.44,6.68,11.79,9.17
			c6.41,3.68,13.17,5.35,20.6,3.49c4.24-1.06,8.19-2.68,12.04-4.69c7.18-3.76,13.32-8.74,18.47-14.99c0.94-1.14,1.95-2.22,2.93-3.33
			c1.7,0.77,3.2,1.5,4.74,2.14c5.84,2.41,11.94,3.65,18.25,3.4c5.45-0.21,10.7-1.65,15.7-3.76c10.85-4.58,21.03-10.34,30.22-17.78
			c0.77-0.62,1.63-1.13,2.45-1.69c2.32-0.51,4.69-0.88,6.97-1.57c6.54-1.97,12.43-5.3,18.19-8.88c2.3-1.42,4.53-2.95,6.79-4.43
			c2.58-0.07,5.17-0.35,7.72-0.15c4.5,0.37,8.9,1.31,12.74,3.91c2.24,1.52,3.94,3.5,4.74,6.04c-0.14,0.22-0.17,0.32-0.23,0.35
			c-1.06,0.46-2.14,0.89-3.19,1.38c-6.06,2.82-10.48,7.34-13.26,13.35c-2.42,5.24-1.38,10.4,1.05,15.39
			c1.19,2.44,3.62,3.71,6.34,3.29c4.95-0.77,8.46-3.78,11.24-7.64c3.75-5.21,4.59-11.14,3.6-17.37c-0.34-2.12-0.79-4.21-1.23-6.58
			c4.98-0.54,9.83-1.13,14.7-1.57c6.83-0.61,13.52-1.96,19.93-4.32c7.33-2.69,14.53-5.72,21.76-8.67
			c7.81-3.19,14.89-7.75,22.16-11.95c6.27-3.62,11.79-8.09,15.93-14.11c0.13-0.19,0.37-0.3,0.56-0.44c0,14.83,0,29.67,0,44.5
			c-2.47,0.15-4.94,0.41-7.41,0.42c-7,0.05-13.85,1.28-20.66,2.65c-6.18,1.24-12.16,3.32-18.03,5.6c-4.17,1.62-8.17,3.69-12.38,5.2
			c-6.22,2.23-11.55,6.11-17.4,9.01c-6.34,3.14-11.55,7.95-17.09,12.29c-6.14,4.81-11.18,10.67-16.64,16.13
			c-2.61,2.6-4.5,5.7-6.59,8.63c-3.69,5.16-7,10.58-10.45,15.9C623.13,499.15,623.11,499.6,623,500z"/>
		<path class="st3" d="M645.88,51.66c-3.44,2.2-7.24,3.27-11.23,4.14c-5.41,1.18-10.72,1.26-16.2,0.89
			c-5.05-0.34-9.89-1.82-14.9-2.2c-0.86-3.4-2.84-4.4-5.79-2.92c-2.27-1-4.54-1.99-6.8-3.01c-0.96-0.43-1.9-0.44-2.87-0.06
			c-1.49-2.24-1.99-2.42-4.43-1.67c-0.31,0.1-0.62,0.17-0.93,0.26c-2.24,0.13-4.47,0.27-6.71,0.4c-0.74-1.25-1.69-2.5-3.21-2.39
			c-1.61,0.12-2.48,1.49-3.06,2.93c-0.12,0.3-0.19,0.63-0.28,0.95c-0.96,0.19-1.94,0.3-2.88,0.57c-3.39,0.96-6.77,1.96-10.15,2.95
			c-1.41-2.31-3.32-2.55-5.37-0.81c-1.27,1.08-1.1,2.43-1.07,3.81c-1.84,0.9-3.67,1.81-5.52,2.7c-3.19,1.54-6.36,3.13-9.6,4.57
			c-4.69,2.08-9.35,4.27-14.17,6c-4.81,1.72-9.56,3.69-14.87,3.82c-4.78,0.12-9.53,1.12-14.31,1.3c-2.85,0.11-5.74-0.62-8.61-0.98
			c-0.98-0.12-1.96-0.26-2.94-0.39c-2.36-0.37-4.72-0.78-7.09-1.09c-2-0.26-3.93-0.8-5.82-1.42c-3.39-1.11-6.98-1.58-10.15-3.46
			c-1.59-0.94-3.54-1.27-5.24-2.05c-1.54-0.71-3.05-1.56-4.44-2.53c-2.13-1.49-3.96-3.52-6.24-4.65c-3.52-1.73-6.06-4.56-8.87-7.06
			c-3.4-3.02-6.38-6.53-9.48-9.88c-1.28-1.39-2.4-2.92-3.6-4.39c-0.38-2.33,0.79-4.37,1.22-6.55c0.72-3.65,1.88-7.26,2.14-10.94
			C422.9,11.75,420.94,5.54,417,0c20.5,0,41,0,61.5,0c-0.33,0.74-0.55,1.57-1.02,2.21c-1.67,2.26-3.49,4.42-5.13,6.7
			c-1.19,1.66-2.93,2.97-3.3,5.17c-0.29,1.69,0.13,2.97,1.29,3.72c1.49,0.96,2.96,0.91,4.36-0.3c0.68-0.59,1.25-1.32,1.81-2.04
			c2.65-3.39,5.32-6.76,7.91-10.2c1.28-1.7,2.39-3.51,3.58-5.27c4.5,0,9,0,13.5,0c0.12,1.5-1.01,2.38-1.71,3.47
			c-2.41,3.76-4.93,7.45-7.21,11.29c-0.57,0.96-0.59,2.4-0.47,3.58c0.13,1.3,1.37,1.89,2.52,2.08c1.09,0.17,2.34,0.47,3.22-0.68
			c1.21-1.58,2.49-3.1,3.62-4.73c1.46-2.1,2.75-4.34,4.23-6.43c1.67-2.37,3.49-4.62,5.2-6.97c0.32-0.45,0.4-1.07,0.6-1.61
			c5,0,10,0,15,0c-0.23,0.61-0.35,1.3-0.71,1.82c-2.74,3.83-5.45,7.68-8.32,11.4c-1.28,1.66-1.6,3.41-1.42,5.36
			c0.11,1.12,0.81,1.75,1.95,1.93c2.66,0.42,4.18-0.29,5.57-2.68c0.5-0.86,0.9-1.79,1.49-2.58c3.29-4.36,6.64-8.67,9.92-13.03
			c0.48-0.63,0.69-1.47,1.02-2.21c34,0,68,0,102,0c0.49,0.56,0.98,1.12,1.47,1.68c4.43,5.03,4.18,12.38-0.24,16.76
			c-0.21-0.09-0.47-0.14-0.66-0.28c-2.77-2.11-5.98-2.4-9.27-2.14c-1.73,0.14-3.14,1.06-4.2,2.44c-1.64,2.14-1.15,4.63,1.26,5.86
			c0.86,0.44,1.89,0.64,2.86,0.71c2.69,0.19,5.31-0.15,7.75-1.45c0.53-0.28,1.15-0.41,2.15-0.75c0,1.71,0.06,3.03-0.01,4.35
			c-0.22,4.07-0.55,8.14-0.73,12.21c-0.12,2.66-0.04,5.3,1.41,7.73C641.23,49.5,643.47,50.67,645.88,51.66z M505.11,29.49
			c-0.26,0.14-1.16,0.4-1.75,0.98c-1.64,1.62-3.5,3.06-4.52,5.26c-0.55,1.18-1.23,2.39-2.15,3.28c-1.56,1.5-1.82,3.27-1.7,5.24
			c0.09,1.49,0.86,2.75,1.99,3.14c1.42,0.49,2.87-0.02,3.81-1.38c1.12-1.63,2.28-3.25,3.32-4.93c1.39-2.26,2.82-4.5,3.98-6.88
			C509.28,31.74,508.07,29.5,505.11,29.49z M470.87,45.5c3.93-2.96,6.28-6.95,8.52-11c0.42-0.76,0.55-1.74,0.59-2.64
			c0.11-2.21-1.12-3.27-3.26-2.79c-0.7,0.16-1.43,0.52-1.96,1c-3.15,2.85-5.82,6.1-7.63,9.99c-1.08,2.33-0.09,4.41,2.39,5.03
			C469.92,45.19,470.31,45.32,470.87,45.5z M483.45,50.51c-0.31,0.18-1.14,0.44-1.65,1c-2.05,2.28-4.11,4.57-5.92,7.03
			c-0.96,1.3-1.57,2.92-2.06,4.48c-0.24,0.76-0.13,1.91,0.31,2.56c1.55,2.33,3.45,2.76,6.06-0.17c1.37-1.53,2.54-3.29,3.56-5.08
			c1.11-1.94,2.09-3.99,2.83-6.09C487.3,52.21,485.93,50.45,483.45,50.51z M597.48,46.38c2.1-0.02,2.93-0.84,2.87-2.84
			c-0.06-1.85-1.61-3.49-3.25-3.44c-1.66,0.05-3.03,1.37-3.05,2.94C594.02,45.13,595.32,46.4,597.48,46.38z M561.77,44.98
			c1.66-0.01,3.4-1.57,3.36-3c-0.04-1.37-1.98-3.19-3.38-3.17c-1.53,0.02-2.99,1.54-2.95,3.08
			C558.87,44.08,559.74,44.99,561.77,44.98z M578.86,36.72c-0.01-1.88-1.53-3.42-3.29-3.34c-1.23,0.06-2.81,1.78-2.81,3.06
			c0,1.31,1.75,2.96,3.16,2.99C578.06,39.47,578.87,38.72,578.86,36.72z M588.88,36.27c0.02-1.72-1.13-2.82-3-2.88
			c-1.63-0.05-3.34,1.69-3.28,3.36c0.04,1.43,1.49,2.71,3.02,2.68C587.15,39.4,588.86,37.74,588.88,36.27z"/>
		<path class="st0" d="M408.53,58.48c-1.8,1.32-3.54,2.72-5.4,3.93c-4.28,2.79-8.62,5.47-12.92,8.24c-1.32,0.85-2.5,1.91-3.84,2.73
			c-3.32,2.03-6.66,4.04-10.06,5.95c-4.42,2.49-9.04,4.54-13.92,6c-1.25,0.37-2.37,1.45-3.61,1.56c-3.6,0.32-6.7,2.24-10.19,2.82
			c-2.65,0.44-5.32,0.78-7.95,1.33c-2.19,0.45-4.31,1.15-6.6,0.99c-2.04-0.14-4.11,0.08-6.16-0.05c-3.71-0.24-7.41-0.74-11.12-0.9
			c-6.03-0.26-11.64-2.47-17.48-3.6c-0.08-0.02-0.17-0.01-0.25-0.05c-4.72-2.18-9.73-3.57-14.33-6.16
			c-4.79-2.69-9.47-5.47-13.77-8.85c-3.83-3.01-7.7-6.06-10.01-10.54c-0.08-0.15-0.16-0.3-0.28-0.41
			c-3.24-3.25-5.74-7.06-8.32-10.83c-2.8-4.1-5.9-8.07-7.86-12.61c-1.69-3.9-3.86-7.63-4.61-11.96c-0.73-4.22-2.03-8.33-2.92-12.53
			C236,9.09,235.15,4.6,235.5,0c40.33,0,80.67,0,121,0c-1.29,1.92-2.71,3.78-3.85,5.79c-2.4,4.23-3.02,8.88-2.74,13.66
			c0.33,5.63-0.09,11.17-2.82,16.19c-1.49,2.74-3.6,5.14-5.48,7.65c-3.37,4.49-7.51,7.92-13.14,9.23c-1.4,0.32-2.04,1.15-1.93,2.19
			c0.11,1.03,0.97,1.67,2.33,1.8c3.95,0.39,7.74-0.65,11.51-1.5c2.2-0.49,4.34-1.66,6.28-2.9c3.62-2.31,7.35-4.55,9.81-8.27
			c1.27-1.93,2.43-3.96,3.85-5.77c3.28-4.19,4.09-9.14,4.7-14.19c0.24-1.97,0.28-3.99,0.81-5.88c1.38-4.93,3.91-9.31,6.89-13.44
			c1.1-1.52,2.2-3.04,3.31-4.56c0.33,0,0.67,0,1,0c-0.33,1.45-0.9,2.89-0.94,4.35c-0.08,3.2-0.87,6.35-0.15,9.64
			c0.9,4.1,1.2,8.34,1.85,12.5c0.52,3.35,1.2,6.67,1.75,10.01c0.3,1.79,0.55,3.6,0.68,5.41c0.11,1.55,0.28,3.17-0.02,4.67
			c-0.9,4.46-2.04,8.87-3.05,13.3c-0.4,1.77-0.75,3.56-1.08,5.35c-0.2,1.08,0.1,2.04,1.13,2.53c0.97,0.46,1.95,0.37,2.76-0.45
			c0.47-0.48,0.99-0.92,1.35-1.47c2.83-4.28,5.74-8.52,8.41-12.9c3.17-5.22,4.93-11.03,6.23-16.94c0.67-3.05,0.74-6.23,1.05-9.36
			c0.05-0.49,0.02-1-0.06-1.49c-0.46-3.1-0.87-6.22-1.42-9.31c-0.95-5.29-1.99-10.56-3-15.84c1.67,0,3.33,0,5,0
			c0.78,1.54,1.58,3.06,2.34,4.61c1.24,2.51,2.62,4.98,3.65,7.58c1.6,4.06,1.21,8.28,0.59,12.49c-0.3,2.04-0.43,4.11-0.58,6.16
			c-0.19,2.55-0.33,5.11-0.47,7.66c-0.03,0.57,0.06,1.15,0.12,1.73c0.1,0.9,0.32,1.8,0.32,2.69c-0.03,4.6,1.39,8.79,3.42,12.82
			C407.38,56.69,407.98,57.57,408.53,58.48z M276.63,42.65c-0.27-0.68-0.44-1.14-0.64-1.59c-0.6-1.38-2.09-2.42-3.21-2.26
			c-1.5,0.22-2.58,1.56-2.66,3.38c-0.04,0.99-0.09,2,0.01,2.99c0.12,1.27-0.4,1.95-1.55,2.48c-1.27,0.59-2.53,1.3-3.59,2.2
			c-1.93,1.64-1.6,3.84,0.66,5.03c0.65,0.34,1.41,0.47,2.11,0.71c0.92,0.31,1.83,0.64,2.79,0.97c-0.05,0.87,0,1.54-0.15,2.17
			c-0.3,1.31,0,2.43,0.66,3.56c0.61,1.03,1.13,2.08,2.54,2.06c1.47-0.02,2.16-1.03,2.76-2.18c0.49-0.93,1.04-1.82,1.89-3.3
			c0.62,0.9,0.88,1.63,1.39,1.94c0.8,0.47,1.79,0.95,2.68,0.9c2.02-0.12,2.9-2.67,1.71-4.66c-0.68-1.14-1.35-2.28-2.12-3.36
			c-0.73-1.03-0.68-1.99-0.06-3c1.27-2.04,2.51-4.1,3.81-6.13c0.92-1.44,1.01-2.49,0.15-3.65c-0.95-1.3-1.59-1.48-3.48-0.74
			C280.49,40.92,278.69,41.76,276.63,42.65z"/>
		<path class="st4" d="M623,500c0.11-0.4,0.13-0.85,0.34-1.18c3.45-5.33,6.77-10.75,10.45-15.9c2.1-2.93,3.99-6.02,6.59-8.63
			c5.46-5.46,10.5-11.32,16.64-16.13c5.54-4.34,10.75-9.15,17.09-12.29c5.85-2.9,11.18-6.78,17.4-9.01
			c4.21-1.51,8.21-3.58,12.38-5.2c5.88-2.28,11.85-4.36,18.03-5.6c6.81-1.37,13.66-2.6,20.66-2.65c2.47-0.02,4.94-0.28,7.41-0.42
			c0,25.67,0,51.33,0,77C707.67,500,665.33,500,623,500z M676.38,463.04c1.14-0.25,2.62-0.44,3.98-0.94
			c0.56-0.21,1.23-1.08,1.21-1.64c-0.01-0.52-0.84-1.41-1.35-1.45c-2.36-0.18-4.74-0.22-7.1-0.09c-0.96,0.05-1.5,0.97-1.52,1.99
			c-0.02,0.99,0.66,1.52,1.5,1.71C674.05,462.82,675.04,462.87,676.38,463.04z M707.81,457.4c-1.29,0.12-2.37,0.15-3.42,0.35
			c-0.97,0.19-1.7,0.86-1.6,1.9c0.11,1.09,0.8,1.83,2,1.76c2.39-0.14,4.78-0.29,7.16-0.5c0.8-0.07,1.39-0.55,1.42-1.44
			c0.03-0.92-0.55-1.35-1.36-1.48C710.56,457.75,709.09,457.58,707.81,457.4z M726.25,439.96c1.11-0.22,2.7-0.37,4.17-0.88
			c0.61-0.21,1.28-1.13,1.37-1.81c0.13-0.98-0.88-1.44-1.7-1.45c-2.23-0.02-4.48,0.01-6.69,0.28c-0.59,0.07-1.4,0.98-1.53,1.62
			c-0.19,0.91,0.37,1.81,1.45,2.01C724.12,439.88,724.96,439.87,726.25,439.96z M698.2,450.97c0.01,0.05,0.02,0.1,0.03,0.15
			c1.37-0.25,2.77-0.41,4.12-0.77c0.88-0.24,1.45-1.04,1.09-1.92c-0.23-0.57-0.96-1.24-1.53-1.3c-1.55-0.17-3.14-0.09-4.7-0.01
			c-0.55,0.03-1.29,0.2-1.58,0.58c-0.46,0.6-0.89,1.46-0.8,2.14c0.06,0.44,1.02,0.87,1.65,1.09
			C696.99,451.11,697.62,450.97,698.2,450.97z M715.08,480.34c0.59-0.07,1.65-0.19,2.71-0.34c1-0.14,1.89-0.67,1.71-1.71
			c-0.11-0.65-0.85-1.38-1.49-1.71c-1.9-0.98-3.9-0.31-5.79,0.14c-0.52,0.12-1.16,1.29-1.09,1.9c0.07,0.62,0.87,1.31,1.52,1.65
			C713.17,480.55,713.94,480.34,715.08,480.34z M652.97,478.64c0.99-0.14,2.33-0.22,3.6-0.56c0.52-0.14,1.2-0.86,1.21-1.33
			c0.01-0.44-0.74-1.23-1.22-1.28c-2.21-0.25-4.46-0.41-6.68-0.33c-0.54,0.02-1.34,1.02-1.5,1.69c-0.23,0.94,0.64,1.49,1.51,1.64
			C650.79,478.61,651.72,478.57,652.97,478.64z M709.68,489.45c-0.95,0.1-1.62,0.11-2.26,0.26c-0.97,0.23-1.67,0.85-1.7,1.89
			c-0.03,1.09,0.74,1.64,1.7,1.86c1.88,0.44,3.65-0.08,5.24-1c0.95-0.55,0.86-1.73-0.15-2.2
			C711.56,489.8,710.47,489.66,709.68,489.45z M736,451.94c0.77-0.26,1.91-0.51,2.91-1.03c1.33-0.7,1.29-2.12-0.14-2.55
			c-1.37-0.41-2.89-0.43-4.34-0.42c-1.06,0.01-1.96,0.59-1.94,1.82c0.02,1.17,0.9,1.69,1.9,1.99
			C734.78,451.86,735.21,451.85,736,451.94z M736.34,471.15c0.95-0.19,1.98-0.22,2.83-0.63c0.53-0.26,1.06-1.07,1.09-1.66
			c0.03-0.46-0.63-1.21-1.13-1.38c-0.9-0.31-1.92-0.38-2.89-0.38c-2.05,0-3.16,0.78-3.08,2.05
			C733.25,470.54,734.07,471.03,736.34,471.15z M685.33,480.83c1.12-0.15,2.13-0.19,3.07-0.44c1.06-0.28,1.28-1.31,0.55-2.13
			c-0.84-0.94-4.41-1.79-5.58-1.34c-0.85,0.33-1.37,0.9-1.34,1.86c0.04,0.96,0.58,1.51,1.48,1.72
			C684.16,480.65,684.81,480.74,685.33,480.83z M740,492.59c-1.54-1.97-3.59-2.07-5.64-1.96c-0.52,0.03-1.35,0.67-1.41,1.13
			c-0.09,0.6,0.25,1.47,0.71,1.92C735.18,495.16,738.52,494.63,740,492.59z M676.73,493.93c0.59-0.15,1.68-0.29,2.64-0.72
			c0.49-0.22,1.05-0.98,1.01-1.46c-0.04-0.51-0.66-1.22-1.17-1.39c-0.92-0.31-1.95-0.33-2.93-0.37c-1.42-0.06-2.58,0.75-2.6,1.71
			C673.64,492.72,675.02,493.89,676.73,493.93z M645.37,489.61c-0.52,0.08-1.19,0.11-1.81,0.29c-0.82,0.25-1.5,0.67-1.46,1.72
			c0.04,1.15,0.8,1.67,1.74,1.72c1.05,0.05,2.16-0.07,3.15-0.39c0.58-0.19,1.25-0.86,1.4-1.44c0.24-0.95-0.6-1.46-1.41-1.73
			C646.52,489.64,646,489.67,645.37,489.61z"/>
		<path class="st2" d="M0,167c0-26.17,0-52.33,0-78.5c0.65-0.05,1.35,0.01,1.96-0.18c2.92-0.94,5.82-1.9,8.7-2.95
			c2.02-0.74,4.05-1.51,5.99-2.45c7.36-3.57,14.19-7.96,20.28-13.46c0.98-0.88,2.02-1.69,3.03-2.53c0.17,0.18,0.3,0.47,0.5,0.52
			c2.62,0.69,5.08,1.82,7.84,2.14c2.25,0.25,4.41-0.07,6.61-0.11c1.97-0.03,3.95-0.22,5.91-0.46c2.2-0.27,4.38-0.88,6.58-0.97
			c2.48-0.09,4.64-1.11,6.92-1.79c1.48-0.44,2.98-0.82,4.45-1.32c1.44-0.49,2.84-1.1,4.25-1.65c2.79,2.13,6,3.3,9.37,4.16
			c1.41,0.36,2.74,1.03,4.1,1.56c0.27,2.54,0.59,5.08,0.78,7.62c0.12,1.55,0.34,3.21-0.05,4.66c-0.52,1.87-0.79,3.71-0.74,5.62
			c-1.57,3.32-3.65,6.33-6.09,9.04c-3.32,3.71-6.73,7.36-10.29,10.83c-3.92,3.82-7.96,7.53-12.13,11.08
			c-4.86,4.13-10.08,7.84-14.27,12.73c-2.65,3.1-5.31,6.22-7.06,9.91c-1.38,2.92-2.47,5.99-3.51,9.05c-0.93,2.73-1.64,5.54-2.44,8.3
			c-0.52,0.02-0.84,0.06-1.17,0.05c-3.4-0.13-6.82-0.6-10.18-0.35c-9.32,0.68-18.08,3.38-26.2,8.08C2.16,166.22,1.05,166.56,0,167z"
			/>
		<path class="st3" d="M346.95,489.99c0.81,1.42,1.73,2.78,2.39,4.26c0.83,1.87,1.45,3.83,2.16,5.75c-43.5,0-87,0-130.5,0
			c0.66-4.84,1.47-9.67,1.95-14.53c0.41-4.12,0.45-8.28,0.65-12.43c0.65-0.29,1.5-0.42,1.93-0.9c1.93-2.16,4.26-3.81,6.56-5.54
			c3.75-2.82,7.51-5.6,11.69-7.77c0.52-0.27,0.86-0.9,1.28-1.36c1.97-0.8,3.9-1.7,5.91-2.39c2.8-0.95,5.66-1.74,8.49-2.61
			c0.44,0.78,0.85,1.58,1.34,2.34c1.03,1.6,3.78,1.04,4.44-0.31c0.6-1.22,1.35-2.51,0.69-3.98c1.22-0.01,2.44-0.02,3.66-0.03
			c0.7,1.53,1.92,2.01,3.55,1.95c1.67-0.06,1.74-1.44,2.29-2.46c1.39-0.16,2.79-0.34,4.18-0.47c0.91-0.09,1.41,0.37,1.47,1.28
			c-0.58,0.46-1.24,0.85-1.73,1.39c-1,1.1-1.01,2.43-0.49,3.73c0.44,1.11,1.45,1.55,2.59,1.63c1.41,0.09,3.03-0.99,3.53-2.3
			c0.46-1.2,0.04-2.51-1.16-3.53c-0.44-0.37-0.92-0.69-1.39-1.03c0.25-0.17,0.51-0.48,0.76-0.47c1.56,0.03,3.12,0.13,4.68,0.21
			c1.09,0.86,2.29,1,3.58,0.52c0.52,0.35,0.99,0.86,1.55,1.02c2.99,0.8,5.98,1.65,9.02,2.19c2.21,0.39,4.22,1.31,6.31,1.99
			c2.19,0.71,4.32,1.67,6.36,2.73c2.39,1.24,4.67,2.7,6.99,4.07c3.4,2,6.29,4.67,9.36,7.11c-0.83,0.88-1.67,1.74-2.47,2.64
			c-2.81,3.16-5.61,6.32-8.41,9.49c-0.93,1.06-1.88,2.1-2.75,3.2c-1.28,1.63-1.07,4.99,0.31,5.92c1.95,1.31,4.25,0.86,5.65-1.12
			c0.62-0.88,1.16-1.83,1.85-2.65c3.56-4.24,7.43-8.24,10.27-13.05c2.73,1.79,4.46,4.53,6.55,6.92c0.33,0.38,0.32,1.06,0.46,1.6
			c-0.5,0.65-1.05,1.27-1.47,1.96c-0.8,1.32-0.78,3.93-0.02,4.69c1.14,1.15,3.03,1.42,4.77,0.7
			C346.17,490.21,346.56,490.11,346.95,489.99z M274.55,464.03c0.02-2.03-1.1-3.3-2.88-3.28c-1.9,0.01-4.1,2.69-4.1,4.98
			c0,1.41,1.26,2.6,2.75,2.59C272.8,468.29,274.52,466.55,274.55,464.03z M300.5,458.12c0.01-1.96-1.73-3.93-3.44-3.88
			c-1.96,0.06-3.38,1.64-3.44,3.82c-0.05,1.74,1.36,2.82,3.63,2.79C298.99,460.82,300.49,459.56,300.5,458.12z M288.98,464.16
			c0.04-2.05-0.32-2.98-1.43-3.37c-1.2-0.41-2.28-0.05-3.2,0.77c-1.08,0.97-1.51,2.59-1.06,3.79c0.59,1.54,1.25,2.06,2.7,2.1
			C287.99,467.51,288.94,466.46,288.98,464.16z"/>
		<path class="st2" d="M703.43,358.62c0.5-1.43,1.93-1.13,2.95-1.45c1.32-0.41,2.75-0.45,4.13-0.65c-0.07,1.04-0.28,2.09-0.18,3.11
			c0.1,0.99,0.95,1.46,1.89,1.69c1.03,0.24,1.72-0.19,2.28-1.03c0.84-1.25,1.54-2.52,1.2-4.11c2.7-0.34,5.39-0.79,8.1-0.97
			c1.8-0.12,3.67,0.48,5.42,0.19c4.63-0.76,9.26-0.29,13.89-0.38c2.3-0.04,4.6,0.3,6.9,0.47c0,6,0,12,0,18
			c-0.17,0.17-0.38,0.31-0.5,0.51c-3.61,5.92-8.2,10.9-14.1,14.57c-9.54,5.93-19.2,11.64-29.71,15.75
			c-4.87,1.91-9.69,3.97-14.6,5.77c-6.18,2.25-12.5,3.98-19.08,4.65c-6.02,0.61-12.04,1.35-18.09,2.04
			c-0.09-0.08-0.24-0.16-0.33-0.29c-0.23-0.35-0.45-0.7-0.64-1.07c-2.94-5.66-7.74-8.77-13.87-9.97c-2.52-0.49-5.06-0.86-7.59-1.29
			c0.12-1.39,1.37-1.85,2.26-2.45c3.11-2.11,5.83-4.58,8.4-7.34c2.64-2.83,5.64-5.35,8.61-7.85c3.08-2.6,6.28-5.07,9.51-7.48
			c4.24-3.18,8.98-5.54,13.65-8.01c1.31-0.69,2.5-1.62,3.8-2.35c2.43-1.36,4.86-2.75,7.38-3.93c3.06-1.44,5.85-3.48,9.25-4.16
			c1.21-0.24,2.43-0.42,3.64-0.62c0.04,0.75,0.08,1.49,0.11,2.24c0.05,1.28,0.79,1.69,1.97,1.71
			C703.51,363.99,704.95,361.76,703.43,358.62z"/>
		<path class="st5" d="M57.51,457.61c7.14-2.06,14.55-3.32,21.27-6.71c0.29-0.15,0.6-0.31,0.91-0.38c1.12-0.23,1.85,0.46,1.46,1.54
			c-0.5,1.39-1.12,2.77-1.9,4.03c-1.75,2.81-3.62,5.54-5.45,8.31c-3.48,3.21-6.71,6.76-10.5,9.53c-5.4,3.95-11.48,6.73-18.27,7.47
			c-3.77,0.42-7.53,1.34-11.36,0.47c-0.54-0.12-1.1-0.2-1.7-0.3c-2.74,5.97-4.55,12.06-5.48,18.43c-0.67,0-1.33,0-2,0
			c0.05-1-0.04-2.02,0.16-2.98c1.86-8.75,4.84-17.1,9.31-24.86c2.2-3.81,4.6-7.51,7.01-11.2c1.63-2.5,3.42-4.89,5.14-7.33
			c0.71-0.79,1.41-1.59,1.83-2.05c-1.34-4.44-2.73-8.45-3.72-12.56c-0.91-3.76-0.3-7.59,0.28-11.38c0.43-2.79,0.69-5.6,0.9-8.41
			c0.54-7.3,1.03-14.61,1.49-21.92c0.14-2.24,0.07-4.5,0.2-6.74c0.08-1.47-0.07-3.42,1.69-3.79c1.8-0.38,2.73,1.39,3.38,2.78
			c1.88,3.99,3.74,7.99,4.61,12.36c0.5,2.53,1.05,5.05,1.68,7.54c1.66,6.54,1.35,13.03-0.34,19.5c-1.01,3.86-2.08,7.7-3.11,11.55
			c-0.08,0.3-0.06,0.63-0.14,1.6c4.49-4.46,7.79-9.19,11.48-13.55c3.76-4.45,7.3-9.08,10.75-13.77c3.44-4.69,6.09-9.86,8.76-15.05
			c-1.95-0.83-3.72-1.49-5.42-2.31c-2-0.97-3.47-2.51-4.66-4.4c-2.92-4.63-4.82-9.68-6.08-14.97c-1.1-4.61-2.02-9.26-2.98-13.89
			c-0.37-1.78,0.93-2.94,2.66-2.34c0.67,0.24,1.31,0.73,1.83,1.25c5.29,5.2,10.22,10.72,14.29,16.93c0.95,1.45,1.61,3.09,2.38,4.66
			c0.72,1.46,1.4,2.94,2.09,4.41c0.18-0.02,0.37-0.05,0.55-0.07c0.57-2.14,1.03-4.31,1.74-6.4c0.69-2.02,0.51-3.75-0.46-5.69
			c-1.93-3.85-2.26-8.14-2.79-12.35c-0.27-2.14-0.71-4.28-0.79-6.42c-0.24-6.72,2.21-12.72,5.4-18.43c1.78-3.19,3.95-6.17,5.95-9.24
			c0.23-0.35,0.48-0.69,0.79-0.96c1.02-0.91,1.99-0.69,2.55,0.59c0.2,0.45,0.33,0.95,0.4,1.44c0.77,5.1,1.55,10.2,1.28,15.39
			c-0.24,4.73-0.41,9.46-0.62,14.19c-0.26,5.86-1.89,11.3-5.25,16.13c-0.69,0.99-1.64,1.89-2.66,2.55c-0.9,0.59-1.38,1.11-1.03,2.17
			c0.17,0.03,0.38,0.14,0.46,0.08c4.24-3.07,9-4.97,14-6.39c3.12-0.89,6.22-1.85,9.32-2.81c0.71-0.22,1.53-0.75,1.97,0.12
			c0.21,0.42-0.07,1.32-0.43,1.76c-3.84,4.72-7.83,9.27-13.15,12.47c-4.12,2.48-8.49,3.24-13.18,2.76c-0.4-0.04-0.8-0.09-1.4-0.17
			c-0.51,1.27-1.06,2.46-1.48,3.7c-1.13,3.31-2.51,6.49-4.45,9.42c-0.59,0.89-0.94,1.94-1.39,2.92c-0.09,0.18-0.18,0.35-0.28,0.53
			c0.24-0.02,0.47-0.05,0.71-0.07c8.52-4.69,17.85-5.49,27.3-5.73c4.24-0.11,8.5,0.06,12.66-1c0.32-0.08,0.69-0.21,0.98-0.12
			c0.43,0.13,0.93,0.34,1.17,0.69c0.13,0.2-0.13,0.77-0.35,1.08c-0.23,0.33-0.62,0.55-0.95,0.8c-4.47,3.46-8.85,7.04-13.45,10.32
			c-3.09,2.21-6.33,4.34-9.79,5.88c-4.48,2-9.25,2.42-14.1,0.84c-3.23-1.05-6.58-1.77-9.11-4.41c-5.55,7-10.93,13.79-16.3,20.57
			c0.1,0.13,0.2,0.26,0.3,0.39c1.16-0.54,2.28-1.18,3.48-1.6c2.11-0.74,4.22-1.53,6.4-1.95c4.67-0.9,9.38-1.17,14.15-0.6
			c2.3,0.27,4.65,0.16,6.98,0.23c0.5,0.02,1.02,0.01,1.48,0.17c0.93,0.32,1.16,1.22,0.56,2c-0.15,0.19-0.35,0.36-0.55,0.5
			c-5.39,3.6-10.58,7.57-16.83,9.66c-4.52,1.51-9.1,2.59-13.96,1.56c-2.98-0.64-6.03-0.99-9.41-1.53c-1.23,1.62-2.83,3.43-4.06,5.47
			c-0.79,1.3-1.52,2.52-2.78,3.4c-0.31,0.22-0.45,0.69-0.67,1.04c-2.79,3.85-5.6,7.69-8.35,11.57c-0.51,0.71-0.77,1.59-1.15,2.4
			c-0.15,0.19-0.3,0.37-0.45,0.56c-0.05,0.14-0.1,0.27-0.15,0.41c0.08-0.1,0.17-0.2,0.25-0.3c0.17-0.16,0.35-0.32,0.52-0.48
			c0.36-0.2,0.76-0.34,1.07-0.59c4.5-3.58,9.14-6.9,14.69-8.73C56.1,458.5,56.78,458,57.51,457.61z M54.42,441.94
			c-0.54,0.54-0.93,1.13-0.55,2.46c0.53-0.89,0.82-1.4,1.12-1.9C54.81,442.32,54.62,442.13,54.42,441.94z"/>
		<path class="st6" d="M203.5,500c-28.17,0-56.33,0-84.5,0c1.58-2.02,3.2-4.02,4.73-6.08c6.25-8.38,11.41-17.33,14.3-27.45
			c0.29-1.01,0.79-1.71,1.87-2.11c1.62-0.61,3.26-1.3,4.71-2.24c2.7-1.76,5.27-3.72,7.9-5.59c0.72,0.84,1.49,0.32,2.28,0.1
			c1.51-0.42,3.01-0.96,4.56-1.12c1.52-0.16,2.94-0.34,4.21-1.26c0.46-0.33,1.03-0.6,1.58-0.7c3.08-0.56,6.17-1.1,9.27-1.59
			c3.51-0.55,7.01-1.13,10.54-1.55c4.59-0.55,9.2-1.01,13.81-1.39c3.38-0.28,6.78-0.35,10.18-0.55c0.37-0.02,0.73-0.31,1.09-0.47
			c0.77,0.86,1.62,1.66,2.3,2.59c1.62,2.2,3.4,4.32,4.68,6.72c3.16,5.92,4.32,12.34,4.11,19.02c-1.82,1.28-3.55,2.66-4.74,4.6
			c-0.69,1.12-1.49,2.19-2.28,3.25c-1.58,2.09-3.22,4.14-4.78,6.25c-1.37,1.85-2.75,3.7-3.97,5.64
			C204.58,497.28,204.1,498.68,203.5,500z"/>
		<path class="st6" d="M0,31.5C0,21.03,0,10.55,0,0c21.33,0,42.67,0,64,0c-0.15,1.15-0.36,2.29-0.45,3.45
			c-0.46,6.31-1.96,12.42-3.71,18.46c-1.08,3.73-2.35,7.44-3.92,10.99c-1.84,4.15-3.84,8.27-6.22,12.13
			c-3.71,6-8.32,11.34-13.31,16.33c-1.15,1.15-2.46,2.14-3.7,3.21c-1.92-1.12-3.95-2.08-5.72-3.38c-3.39-2.49-6.48-5.41-9.98-7.72
			c-2.96-1.96-5.24-4.52-7.55-7.06c-3.63-3.98-6.69-8.38-8.46-13.56C0.81,32.34,0.33,31.94,0,31.5z"/>
		<path class="st7" d="M0,367c1.95,0.86,4.02,1.52,5.84,2.61c4.34,2.61,8.42,5.59,12.18,9c7.61,6.9,12.85,15.19,15.55,25.18
			c1.14,4.2,1.9,8.41,2.18,12.7c0.49,7.55-0.9,14.82-3.64,21.86c-1.81,4.65-4.02,9.07-6.87,13.17c-0.18,0.26-0.21,0.61-0.31,0.92
			c-0.71,0.7-1.41,1.4-2.12,2.09c-1.6,1.55-3.11,3.21-4.82,4.61c-4.8,3.93-9.69,7.76-14.56,11.6c-1.01,0.79-1.89,1.91-3.41,1.75
			C0,437.33,0,402.17,0,367z"/>
		<path class="st6" d="M26.5,500c0.93-6.36,2.74-12.46,5.48-18.43c0.6,0.11,1.16,0.18,1.7,0.3c3.83,0.87,7.59-0.05,11.36-0.47
			c6.79-0.75,12.86-3.52,18.27-7.47c3.8-2.78,7.02-6.33,10.5-9.53c3.1,2.03,6.63,2.88,10.19,3.58c4.46,0.88,8.95,1.61,13.42,2.4
			c0.16,0.03,0.33,0.08,0.49,0.07c5.71-0.41,11.5,0.32,17.09-1.61c2.08-0.72,4.35-0.88,6.52-1.38c0.98-0.23,2.25-0.09,2.55-1.51
			c3.71,1.09,7.46,0.78,11.6,0.02c-0.4,1.37-0.66,2.39-1,3.37c-3.08,9.09-8.23,17.02-13.85,24.69c-1.46,1.99-2.89,3.99-4.33,5.99
			C86.5,500,56.5,500,26.5,500z"/>
		<path class="st7" d="M750,129c-2.25-0.38-4.52-0.7-6.75-1.16c-1.94-0.4-3.86-0.92-5.77-1.46c-5.24-1.46-9.65-4.23-13.21-8.37
			c-3.86-4.49-6.55-9.66-8.75-15.11c-1.65-4.1-1.79-8.41-1.57-12.74c0.34-6.63,0.98-13.21,3.47-19.47c0.15-0.38,0.18-0.81,0.26-1.22
			c0.56-0.91,1.1-1.84,1.68-2.74c1.17-1.81,2.24-3.69,3.55-5.38c2.03-2.62,4.08-5.24,6.39-7.6c2.02-2.06,4.2-4.12,6.68-5.52
			c3.27-1.86,6.88-3.14,10.4-4.54c1.12-0.45,2.4-0.48,3.61-0.71C750,71.67,750,100.33,750,129z"/>
		<path class="st6" d="M750,43c-1.21,0.22-2.49,0.26-3.61,0.71c-3.52,1.4-7.13,2.68-10.4,4.54c-2.48,1.41-4.66,3.46-6.68,5.52
			c-2.31,2.36-4.36,4.98-6.39,7.6c-1.31,1.69-2.39,3.57-3.55,5.38c-0.58,0.9-1.12,1.82-1.68,2.74c-4.31-0.78-8.61-1.55-12.92-2.32
			c0.28-0.77,0.45-1.61,0.86-2.3c1.52-2.51,0.8-4.81-0.78-6.84c-1.05-1.35-2.57-2.47-4.37-2.4c-1.7,0.07-3.36,0.75-4.44,2.21
			c-0.86,1.17-1.54,2.47-2.3,3.71c-0.82-0.34-1.71-0.56-2.45-1.03c-5.09-3.21-9.84-6.88-14.02-11.21c-1.32-1.37-3.02-2.65-3.28-4.81
			c3.42-2.47,6.89-4.87,10.24-7.42c3.14-2.38,5.85-5.2,7.6-8.78c0.75-1.54,1.91-2.14,3.53-2.33c3.13-0.37,6.22-0.98,9.35-1.28
			c3.79-0.35,7.61-0.63,11.42-0.64c1.76-0.01,3.61,0.42,5.3,1.61c-0.36,0.61-0.68,1.17-1.01,1.71c-1.78,2.89-3.57,5.78-5.34,8.68
			c-0.66,1.08-0.79,2.24-0.04,3.29c0.76,1.07,1.96,0.8,2.98,0.54c3.38-0.87,5.96-2.94,7.83-5.81c1.4-2.15,1.55-4.51,0.37-6.89
			c-0.92-1.85-0.92-1.88,0.56-3.32c2.94-2.85,6.22-5.24,9.78-7.26c4.47-2.54,8.95-5.07,13.43-7.6C750,20.33,750,31.67,750,43z"/>
		<path class="st1" d="M453.7,448.22c-1.04,1.47-1.99,3-3.13,4.38c-2,2.44-3.89,4.93-5.48,7.67c-0.74,1.28-1.78,2.39-1.94,3.95
			c-0.03,0.24-0.08,0.51-0.21,0.72c-2.92,4.75-4.14,10.22-6.47,15.24c-0.9,1.93-1.38,4.07-1.98,6.13c-0.92,3.16-1.86,6.32-2.64,9.51
			c-0.33,1.35-0.26,2.79-0.36,4.19c-8.33,0-16.67,0-25,0c-0.06-0.49-0.13-0.98-0.19-1.48c-0.79-6-1.83-11.98-2.29-18.01
			c-0.5-6.62-0.3-13.27,0.94-19.84c1.29-6.86,3.54-13.3,7.99-18.81c1.8-2.23,3.91-4.06,6.62-5.13c7.01-2.76,13.85-2.13,20.49,1.11
			C445.28,440.39,449.52,444.27,453.7,448.22z"/>
		<path class="st6" d="M83.03,63.3c-1.42,0.56-2.81,1.16-4.25,1.66c-1.46,0.5-2.96,0.88-4.45,1.32c-2.28,0.68-4.44,1.7-6.92,1.79
			c-2.2,0.08-4.38,0.7-6.58,0.97c-1.96,0.24-3.94,0.42-5.91,0.46c-2.2,0.04-4.37,0.36-6.61,0.11c-2.76-0.31-5.23-1.44-7.84-2.14
			c-0.2-0.05-0.34-0.34-0.5-0.52c1.98-2.22,4.01-4.41,5.92-6.68c2.34-2.79,4.78-5.52,6.84-8.51c3.82-5.53,6.77-11.56,9.31-17.79
			c2.33-5.69,4.25-11.51,5.4-17.54C68.47,10.98,69.16,5.48,70,0c6.67,0,13.33,0,20,0c0.21,5.19,1.58,9.93,5.01,14
			c1.43,1.7,2.7,3.6,3.71,5.58c1.45,2.82,2.44,5.75,1.29,9.06c-1.49,4.3-4.56,6.22-8.89,6.84c-7.76,1.1-12.08,6.9-12.53,14.45
			C78.3,54.94,79.79,59.43,83.03,63.3z"/>
		<path class="st8" d="M453.7,448.22c-4.17-3.94-8.42-7.83-13.63-10.37c-6.64-3.24-13.49-3.87-20.49-1.11
			c-2.71,1.07-4.81,2.89-6.62,5.13c-4.46,5.51-6.7,11.96-7.99,18.81c-1.24,6.57-1.44,13.22-0.94,19.84
			c0.46,6.03,1.5,12.01,2.29,18.01c0.06,0.49,0.13,0.98,0.19,1.48c-1,0-2,0-3,0c-0.05-0.9-0.05-1.8-0.15-2.7
			c-0.64-5.44-1.44-10.86-1.9-16.31c-0.33-3.97-0.41-7.97-0.27-11.95c0.28-7.71,1.88-15.17,5.33-22.13
			c2.16-4.36,4.89-8.25,9.03-11.08c4.65-3.18,9.79-4.01,15.21-3.6c7.09,0.53,12.98,3.86,18.32,8.3c2.24,1.86,4.46,3.73,6.69,5.6
			c3.79,3.23,7.34,6.81,11.42,9.6c7.43,5.09,15.64,6.85,24.39,3.67c4.21-1.53,8.29-3.37,12.08-5.84
			c5.41-3.53,10.19-7.73,14.25-12.75c0.6-0.75,1.16-1.53,1.8-2.39c-4.87-3.29-8.59-7.27-11.56-11.95
			c-1.98-4.04-3.75-8.14-4.25-12.67c-0.62-5.68,0.52-10.88,4.31-15.34c7.45-8.78,17.13-4.12,20.67,1.99
			c3.02,5.21,4.01,10.86,2.95,16.79c-0.52,2.94-1.29,5.83-1.95,8.74c-1.19,2.64-2.33,5.3-3.6,7.9c-0.64,1.3-1.53,2.48-2.35,3.79
			c1.17,0.62,2.09,1.22,3.08,1.61c10.46,4.14,20.98,4.63,31.6,0.49c5.98-2.34,11.68-5.23,17.15-8.55c3.61-2.19,7-4.74,10.49-7.13
			c2.4-1.77,4.82-3.51,7.19-5.31c7.25-5.52,15.14-9.81,23.88-12.49c3.98-1.22,8.05-1.86,12.21-1.99c0.66-0.02,1.32-0.1,1.98-0.16
			c2.53,0.43,5.07,0.8,7.59,1.29c6.13,1.2,10.93,4.31,13.87,9.97c0.19,0.37,0.41,0.72,0.64,1.07c0.09,0.13,0.24,0.22,0.33,0.29
			c6.05-0.69,12.06-1.43,18.09-2.04c6.58-0.67,12.9-2.4,19.08-4.65c4.91-1.79,9.73-3.86,14.6-5.77
			c10.51-4.11,20.17-9.82,29.71-15.75c5.9-3.67,10.49-8.65,14.1-14.57c0.12-0.2,0.33-0.34,0.5-0.51c0,1.67,0,3.33,0,5
			c-0.19,0.15-0.43,0.25-0.56,0.44c-4.14,6.03-9.65,10.49-15.93,14.11c-7.27,4.2-14.35,8.76-22.16,11.95
			c-7.23,2.95-14.43,5.98-21.76,8.67c-6.41,2.36-13.1,3.71-19.93,4.32c-4.87,0.44-9.72,1.03-14.7,1.57c0.45,2.37,0.9,4.47,1.23,6.58
			c0.99,6.24,0.15,12.16-3.6,17.37c-2.78,3.86-6.3,6.87-11.24,7.64c-2.72,0.42-5.15-0.85-6.34-3.29
			c-2.43-4.98-3.47-10.14-1.05-15.39c2.78-6.01,7.2-10.53,13.26-13.35c1.05-0.49,2.13-0.92,3.19-1.38c0.06-0.03,0.09-0.13,0.23-0.35
			c-0.8-2.54-2.5-4.52-4.74-6.04c-3.83-2.6-8.24-3.54-12.74-3.91c-2.55-0.21-5.15,0.08-7.72,0.15c-2.84,0.56-5.76,0.86-8.5,1.72
			c-5.47,1.73-10.67,4.17-15.5,7.29c-2.76,1.78-5.31,3.9-7.95,5.87c-0.82,0.56-1.68,1.07-2.45,1.69
			c-9.19,7.43-19.36,13.2-30.22,17.78c-5.01,2.11-10.25,3.55-15.7,3.76c-6.31,0.25-12.4-0.99-18.25-3.4
			c-1.54-0.63-3.03-1.36-4.74-2.14c-0.98,1.11-1.99,2.19-2.93,3.33c-5.14,6.25-11.29,11.23-18.47,14.99
			c-3.85,2.01-7.8,3.63-12.04,4.69c-7.43,1.86-14.19,0.18-20.6-3.49c-4.35-2.49-8.19-5.68-11.79-9.17
			C455.49,449.71,454.58,448.98,453.7,448.22z M526.77,426.14c1.72-5.22,2.95-10.54,2.42-16.06c-0.42-4.32-1.93-8.26-5.47-11.09
			c-3.89-3.1-8.37-3.95-12.44,0.36c-3,3.18-4.69,7.1-4.65,11.5c0.06,5.68,1.7,10.94,5,15.63c2.47,4.01,5.76,7.16,9.9,9.72
			C523.82,432.94,525.69,429.75,526.77,426.14z M651.96,420.46c-5.95,1.56-10.07,5.14-13.57,9.62c-2.34,3-2.87,6.52-2.83,10.11
			c0.03,2.22,0.64,4.44,1.96,6.35c1.28,1.85,2.62,2.39,4.71,1.6c1.37-0.52,2.77-1.18,3.91-2.1c6.71-5.41,8.43-12.61,7.13-20.79
			C653.01,423.66,652.42,422.11,651.96,420.46z"/>
		<path class="st6" d="M672.5,0c25.83,0,51.67,0,77.5,0c0,2,0,4,0,6c-2.64,1.58-5.25,3.2-7.91,4.72
			c-6.21,3.54-12.48,6.99-17.6,12.11c-0.68,0.68-1.34,0.84-2.22,0.39c-2.9-1.48-6.04-1.9-9.22-1.66c-3.88,0.29-7.74,0.82-11.61,1.28
			c-2.43,0.29-4.86,0.66-7.49,1.03c0-1.34,0.03-2.4,0-3.47c-0.13-4.65-3.48-7.97-8.17-7.84c-4.17,0.11-7.35,2.22-9.95,5.39
			c-2.56,3.12-1.01,8.06,2.85,9.01c1.12,0.28,2.28,0.51,3.42,0.51c2.37-0.01,4.73-0.18,7.13-0.29c-0.78,2.39-2.38,4.5-4.96,6.78
			c-3.93,3.48-8.1,6.61-12.78,9.03c-0.77-2.24-1.35-4.57-2.35-6.7c-1.11-2.39-2.81-4.53-2.35-7.4c0.02-0.1-0.2-0.24-0.31-0.35
			c0.23-1.21,0.39-2.44,0.72-3.62c0.26-0.92,0.86-1.75,1.12-2.68c1.17-4.1,1.73-8.33,2.99-12.43C672.26,6.69,672.14,3.27,672.5,0z"
			/>
		<path class="st2" d="M42.17,189.07c-1.87,1.14-3.73,2.31-5.63,3.41c-3.34,1.93-6.68,3.9-10.09,5.71
			c-4.38,2.33-8.96,4.23-13.84,5.27c-3.14,0.67-6.35,0.97-9.48,1.66C2,205.37,1.04,205.21,0,205c0-11.5,0-23,0-34.5
			c0.38-0.17,0.79-0.28,1.14-0.51c8.98-5.8,18.76-9.17,29.45-9.88c3.16-0.21,6.23,0.1,9.45,0.69c-0.4,3.05-0.76,5.83-1.12,8.62
			C38.05,176.29,39.23,182.83,42.17,189.07z"/>
		<path class="st6" d="M127.5,0c0.6,3.54,0.76,7.01-0.35,10.55c-0.58,1.85-0.43,3.93-0.62,5.9c-1.15,0.03-2.32-0.06-3.45,0.11
			c-2.21,0.33-3.17,2.51-2.16,4.49c0.78,1.54,2.12,1.94,3.65,2.1c-0.94,2.44-1.82,4.89-3.36,7.08c-1.37,1.94-2.16,4.28-3.54,6.2
			c-2.13,2.94-4.61,5.62-6.83,8.5c-2.2,2.85-5.03,5-7.82,7.17c-2.8,2.18-5.72,4.21-8.59,6.3c-2.65,1.21-5.31,2.42-7.96,3.62
			c-1.91-1.21-3.24-2.86-3.75-5.08c-0.38-1.61-0.68-3.24-0.99-4.87c-1.05-5.61,2.71-12.21,8.69-13.6c0.97-0.23,1.95-0.39,2.92-0.6
			c7.72-1.63,12.28-9.47,9.49-16.48c-1.17-2.94-2.7-5.7-4.78-8.15C94.81,9.44,93.13,5.01,93,0C104.5,0,116,0,127.5,0z"/>
		<path class="st6" d="M0,472.5c1.52,0.16,2.4-0.96,3.41-1.75c4.88-3.84,9.76-7.67,14.56-11.6c1.72-1.4,3.23-3.06,4.82-4.61
			c0.71-0.69,1.41-1.39,2.12-2.09c1,0.96,2.17,0.51,3.3,0.4c2.8-0.27,5.59-0.61,8.39-0.85c3.31-0.28,6.37,0.97,9.52,1.63
			c-1.72,2.44-3.51,4.83-5.14,7.33c-2.41,3.69-4.81,7.38-7.01,11.2c-4.47,7.76-7.46,16.11-9.31,24.86c-0.2,0.96-0.12,1.99-0.16,2.98
			c-8.17,0-16.33,0-24.5,0C0,490.83,0,481.67,0,472.5z"/>
		<path class="st3" d="M672.5,0c-0.36,3.27-0.24,6.69-1.19,9.79c-1.26,4.1-1.82,8.34-2.99,12.43c-0.26,0.93-0.86,1.76-1.12,2.68
			c-0.34,1.18-0.49,2.41-0.72,3.61c-1.86,1.54-2.64,3.74-3.49,5.86c-1.93,4.8-4.84,8.83-9,11.94c-1.52,1.14-3.06,2.24-4.59,3.36
			c-6.47-0.23-9.24-4.45-8.88-9.65c0.21-3.06,0.57-6.12,0.74-9.19c0.13-2.32,0.47-4.74-0.02-6.94c-0.51-2.28-0.12-4.01,1.24-5.71
			c0.16-0.19,0.29-0.4,0.41-0.62c2.7-4.98,2.82-9.96-0.02-14.94c-0.49-0.86-0.91-1.75-1.36-2.62C651.83,0,662.17,0,672.5,0z"/>
		<path class="st9" d="M408.53,58.48c-0.55-0.91-1.16-1.78-1.63-2.73c-2.03-4.03-3.46-8.23-3.42-12.82c0.01-0.9-0.22-1.79-0.32-2.69
			c-0.06-0.57-0.15-1.16-0.12-1.73c0.13-2.56,0.28-5.11,0.47-7.66c0.15-2.06,0.28-4.12,0.58-6.16c0.62-4.21,1-8.43-0.59-12.49
			c-1.02-2.6-2.41-5.06-3.65-7.58c-0.76-1.55-1.56-3.07-2.34-4.61c6.5,0,13,0,19.5,0c3.94,5.54,5.9,11.75,5.42,18.49
			c-0.26,3.68-1.41,7.3-2.14,10.94c-0.43,2.18-1.6,4.22-1.22,6.55c-0.6,2.61-0.51,5.28,0.02,7.83c0.71,3.38,1.84,6.68,2.85,9.99
			c0.31,1.02,0.81,1.99,1.24,2.98c0.81,1.82,1.75,3.53,3.26,4.94c1.69,1.59,1.18,3.38-1.11,3.68c-3.14,0.41-6.24,0.14-9.16-1.43
			C413.36,62.46,410.88,60.58,408.53,58.48z"/>
		<path class="st9" d="M392.5,0c1,5.28,2.05,10.55,3,15.84c0.55,3.09,0.97,6.2,1.42,9.31c0.07,0.49,0.11,1,0.06,1.49
			c-0.32,3.13-0.38,6.31-1.05,9.36c-1.3,5.91-3.05,11.73-6.23,16.94c-2.67,4.38-5.58,8.62-8.41,12.9c-0.36,0.55-0.88,0.99-1.35,1.47
			c-0.8,0.82-1.79,0.91-2.76,0.45c-1.04-0.49-1.33-1.45-1.13-2.53c0.33-1.79,0.67-3.58,1.08-5.35c1.01-4.44,2.15-8.85,3.05-13.3
			c0.3-1.5,0.14-3.11,0.02-4.67c-0.13-1.81-0.39-3.62-0.68-5.41c-0.55-3.34-1.23-6.66-1.75-10.01c-0.65-4.16-0.95-8.39-1.85-12.5
			c-0.72-3.29,0.07-6.44,0.15-9.64c0.04-1.46,0.61-2.9,0.94-4.35C382.17,0,387.33,0,392.5,0z"/>
		<path class="st8" d="M93,0c0.13,5.01,1.81,9.44,5.04,13.25c2.07,2.45,3.61,5.21,4.78,8.15c2.8,7.02-1.77,14.86-9.49,16.48
			c-0.97,0.21-1.96,0.37-2.92,0.6c-5.98,1.39-9.74,7.99-8.69,13.6c0.31,1.63,0.61,3.26,0.99,4.87c0.52,2.22,1.85,3.87,3.75,5.08
			c2.8,2.16,6.23,2.61,9.5,3.53c1.09,0.59,2.27,1.04,3.25,1.78c3.07,2.33,3.93,5.56,3.6,9.26c-0.5,5.5-2.49,10.42-5.61,14.93
			c-0.52,0.74-0.91,1.57-1.35,2.36c-4.73,6.58-10.58,12.14-16.41,17.7c-3.48,3.31-7.24,6.32-10.85,9.5
			c-4.1,3.62-8.38,7.07-12.22,10.95c-6.7,6.76-10.1,15.3-12.23,24.4c-0.17,0.71-0.14,1.46-0.2,2.22c2.02,0.83,3.97,1.53,5.83,2.42
			c5.62,2.7,10.34,6.33,12.53,12.48c0.77,6.58-1.43,12.06-6.04,16.73c-3.81,3.86-9.32,4.56-13.41-0.47
			c-0.21-0.26-0.45-0.49-0.67-0.74c-2.93-6.24-4.11-12.78-3.24-19.65c0.35-2.79,0.72-5.57,1.12-8.62c-3.22-0.59-6.29-0.9-9.45-0.69
			c-10.7,0.71-20.47,4.08-29.45,9.88c-0.34,0.22-0.76,0.34-1.14,0.51c0-1.17,0-2.33,0-3.5c1.05-0.44,2.16-0.78,3.14-1.35
			c8.12-4.71,16.88-7.4,26.2-8.08c3.37-0.25,6.79,0.22,10.18,0.35c0.33,0.01,0.66-0.03,1.17-0.05c0.8-2.76,1.5-5.57,2.44-8.3
			c1.05-3.06,2.13-6.13,3.51-9.05c1.75-3.7,4.4-6.81,7.06-9.91c4.19-4.89,9.41-8.6,14.27-12.73c4.17-3.54,8.21-7.26,12.13-11.08
			c3.56-3.47,6.97-7.12,10.29-10.83c2.43-2.71,4.51-5.72,6.09-9.04c2.32-3.54,3.51-7.46,3.42-11.65c-0.06-2.54-0.4-5.19-3.4-6.26
			c-1.37-0.53-2.69-1.2-4.1-1.56c-3.37-0.86-6.58-2.03-9.37-4.16c-3.24-3.87-4.73-8.37-4.43-13.36c0.45-7.56,4.77-13.35,12.53-14.45
			c4.33-0.62,7.4-2.54,8.89-6.84c1.15-3.31,0.16-6.24-1.29-9.06c-1.01-1.98-2.28-3.88-3.71-5.58C91.58,9.93,90.21,5.19,90,0
			C91,0,92,0,93,0z M44.95,187.54c1.9,3.27,4.28,3.98,7.38,2.06c4.72-2.91,6.97-7.29,7.31-12.74c0.21-2.39-0.75-4.39-2.13-6.22
			c-3.62-4.79-8.64-7.35-14.4-9.1c-0.35,1.35-0.72,2.53-0.96,3.75c-0.94,4.88-0.76,9.8,0.05,14.64
			C42.64,182.55,42.93,185.4,44.95,187.54z"/>
		<path class="st9" d="M376,0c-1.1,1.52-2.21,3.03-3.31,4.56c-2.97,4.13-5.51,8.51-6.89,13.44c-0.53,1.89-0.57,3.92-0.81,5.88
			c-0.61,5.05-1.41,10-4.7,14.19c-1.42,1.81-2.58,3.84-3.85,5.77c-2.45,3.72-6.19,5.96-9.81,8.27c-1.93,1.23-4.07,2.4-6.28,2.9
			c-3.76,0.84-7.56,1.88-11.51,1.5c-1.36-0.13-2.21-0.77-2.33-1.8c-0.11-1.03,0.53-1.86,1.93-2.19c5.63-1.3,9.77-4.73,13.14-9.23
			c1.89-2.51,3.99-4.92,5.48-7.65c2.73-5.02,3.15-10.56,2.82-16.19c-0.28-4.78,0.34-9.43,2.74-13.66c1.14-2.01,2.56-3.86,3.85-5.79
			C363,0,369.5,0,376,0z"/>
		<path class="st10" d="M0,31.5c0.33,0.44,0.81,0.84,0.98,1.34c1.77,5.18,4.84,9.58,8.46,13.56c2.31,2.53,4.59,5.1,7.55,7.06
			c3.5,2.31,6.59,5.23,9.98,7.72c1.78,1.31,3.81,2.27,5.72,3.38c-3.99,4.65-9.29,7.49-14.55,10.32c-3.42,1.84-6.98,3.44-10.58,4.89
			C5.13,80.74,2.53,81.27,0,82C0,65.17,0,48.33,0,31.5z"/>
		<path class="st11" d="M0,82c2.53-0.73,5.13-1.26,7.56-2.24c3.6-1.45,7.17-3.05,10.58-4.89c5.26-2.83,10.56-5.67,14.55-10.32
			c1.24-1.07,2.55-2.06,3.7-3.21c4.99-4.99,9.6-10.33,13.31-16.33c2.38-3.85,4.39-7.97,6.22-12.13c1.57-3.55,2.83-7.26,3.92-10.99
			c1.75-6.04,3.25-12.15,3.71-18.46C63.64,2.29,63.85,1.15,64,0c2,0,4,0,6,0c-0.84,5.48-1.53,10.98-2.56,16.42
			c-1.15,6.03-3.08,11.85-5.4,17.54c-2.54,6.22-5.49,12.25-9.31,17.79c-2.06,2.99-4.5,5.73-6.84,8.51
			c-1.91,2.28-3.94,4.46-5.92,6.68c-1.01,0.84-2.05,1.65-3.03,2.53c-6.1,5.49-12.92,9.88-20.28,13.46
			c-1.94,0.94-3.96,1.71-5.99,2.45c-2.88,1.05-5.79,2.01-8.7,2.95c-0.61,0.2-1.3,0.13-1.96,0.18C0,86.33,0,84.17,0,82z"/>
		<path class="st12" d="M641.5,0c0.45,0.88,0.87,1.77,1.36,2.62c2.84,4.98,2.72,9.96,0.02,14.94c-0.12,0.22-0.26,0.43-0.41,0.62
			c-1.36,1.7-1.75,3.43-1.24,5.71c0.49,2.21,0.15,4.63,0.02,6.94c-0.17,3.07-0.52,6.12-0.74,9.19c-0.36,5.19,2.41,9.41,8.88,9.65
			c0.82,0.03,1.65,0.18,2.44,0.06c6.97-1.01,13.51-3.32,19.65-6.76c4.68-2.42,8.85-5.55,12.78-9.03c2.57-2.27,4.17-4.39,4.96-6.78
			c-2.39,0.11-4.76,0.29-7.13,0.29c-1.14,0-2.31-0.24-3.42-0.51c-3.86-0.95-5.41-5.89-2.85-9.01c2.6-3.17,5.78-5.27,9.95-5.39
			c4.69-0.13,8.04,3.19,8.17,7.84c0.03,1.06,0,2.13,0,3.47c2.63-0.36,5.05-0.73,7.49-1.03c3.87-0.47,7.73-0.99,11.61-1.28
			c3.18-0.24,6.32,0.18,9.22,1.66c0.88,0.45,1.54,0.3,2.22-0.39c5.12-5.12,11.39-8.57,17.6-12.11C744.75,9.2,747.36,7.58,750,6
			c0,1,0,2,0,3c-4.48,2.53-8.95,5.07-13.43,7.6c-3.56,2.02-6.85,4.4-9.78,7.26c-1.48,1.44-1.48,1.47-0.56,3.32
			c1.18,2.38,1.03,4.74-0.37,6.89c-1.87,2.87-4.45,4.94-7.83,5.81c-1.02,0.26-2.22,0.53-2.98-0.54c-0.75-1.05-0.61-2.22,0.04-3.29
			c1.77-2.9,3.56-5.79,5.34-8.68c0.33-0.54,0.65-1.09,1.01-1.71c-1.7-1.19-3.54-1.62-5.3-1.61c-3.81,0.01-7.62,0.29-11.42,0.64
			c-3.13,0.29-6.23,0.91-9.35,1.28c-1.62,0.19-2.78,0.78-3.53,2.33c-1.75,3.59-4.46,6.4-7.6,8.78c-3.36,2.55-6.82,4.95-10.24,7.42
			c-0.91,0.37-1.88,0.65-2.74,1.12c-4.38,2.4-9.1,3.93-13.84,5.38c-3.79,1.16-7.64,1.3-11.54,0.67c-2.41-0.99-4.65-2.16-6.07-4.54
			c-1.45-2.43-1.53-5.07-1.41-7.73c0.18-4.07,0.51-8.14,0.73-12.21c0.07-1.31,0.01-2.63,0.01-4.35c-1,0.34-1.62,0.46-2.15,0.75
			c-2.44,1.3-5.06,1.65-7.75,1.45c-0.97-0.07-2.01-0.28-2.86-0.71c-2.41-1.23-2.91-3.72-1.26-5.86c1.06-1.38,2.47-2.3,4.2-2.44
			c3.29-0.26,6.5,0.03,9.27,2.14c0.19,0.14,0.44,0.19,0.66,0.28c4.43-4.39,4.67-11.73,0.24-16.76C638.98,1.12,638.49,0.56,638,0
			C639.17,0,640.33,0,641.5,0z M691.08,24.59c0.18-1.76,0.46-3.06,0.41-4.35c-0.13-3.25-2.41-5.32-5.66-5.29
			c-3.45,0.04-5.86,2-8.01,4.4c-1.53,1.72-1.16,3.97,0.91,4.95c1.01,0.48,2.23,0.77,3.35,0.76
			C684.95,25.03,687.82,24.78,691.08,24.59z M637.09,20.34c-2.01-2.09-6.4-2.93-8.88-1.66c-0.36,0.18-0.69,0.46-0.98,0.75
			c-1.15,1.19-0.92,2.49,0.56,3.18C630.18,23.72,635.18,22.5,637.09,20.34z M717.07,36.95c0.17,0.17,0.34,0.34,0.51,0.51
			c2.96-0.85,5.21-2.65,6.62-5.43c0.83-1.63,0.42-3.12-1.15-4.53C721.04,30.68,719.05,33.81,717.07,36.95z"/>
		<path class="st13" d="M116.5,500c1.44-2,2.87-4,4.33-5.99c5.62-7.67,10.77-15.6,13.85-24.69c0.33-0.99,0.59-2,1-3.37
			c-4.14,0.76-7.89,1.08-11.6-0.02c-2.44-2.03-4.8-4.11-5.82-7.29c-2.19-6.76-0.87-12.83,3.69-18.16c2.09-2.44,5.44-2.99,8.48-1.8
			c4.27,1.66,6.99,4.73,8.1,9.13c0.94,3.72,1.46,7.5,1,11.36c-0.09,0.73-0.01,1.47-0.01,2.42c0.62-0.12,1.19-0.13,1.66-0.35
			c1.13-0.53,2.26-1.08,3.29-1.76c5.63-3.72,11.03-7.75,15.88-12.47c8.53-8.3,18.93-11.77,30.55-10.83
			c8.31,0.67,15.79,3.9,21.21,10.74c0.51,0.64,1.19,1.15,1.78,1.71c1.66,2.36,3.47,4.63,4.94,7.11c3.14,5.31,4.26,11.23,4.77,17.29
			c-0.2,4.14-0.24,8.3-0.65,12.43c-0.48,4.86-1.28,9.69-1.95,14.53c-0.67,0-1.33,0-2,0c0.06-0.9,0.08-1.81,0.2-2.7
			c0.95-6.96,1.93-13.92,1.91-20.98c0.21-6.68-0.95-13.1-4.11-19.02c-1.28-2.39-3.06-4.52-4.68-6.72c-0.68-0.93-1.53-1.73-2.3-2.59
			c-1.73-2.16-3.65-4.18-6.23-5.27c-3.28-1.39-6.6-2.75-10.02-3.72c-4.07-1.16-8.25-0.64-12.39-0.07c-6.7,0.92-12.55,3.7-17.69,8.03
			c-3.75,3.16-7.45,6.38-11.18,9.57c-2.63,1.88-5.2,3.84-7.9,5.59c-1.45,0.94-3.08,1.64-4.71,2.24c-1.09,0.4-1.58,1.1-1.87,2.11
			c-2.89,10.13-8.06,19.07-14.3,27.45c-1.53,2.06-3.15,4.05-4.73,6.08C118.17,500,117.33,500,116.5,500z M137.59,455.92
			c-0.23-1.84-0.35-3.67-0.69-5.46c-0.7-3.64-2.38-6.7-5.59-8.78c-3.25-2.11-6.7-1.67-8.72,1.51c-2.71,4.29-3.97,9.01-2.48,14.04
			c1.15,3.88,3.63,6.34,7.89,6.96c2.42,0.35,4.6-0.35,6.87-0.68c1.26-0.18,1.87-0.95,2.02-2.16
			C137.12,459.55,137.35,457.73,137.59,455.92z"/>
		<path class="st3" d="M221.11,476.32c0.02,7.05-0.96,14.01-1.91,20.98c-0.12,0.89-0.14,1.8-0.2,2.7c-5.17,0-10.33,0-15.5,0
			c0.6-1.32,1.08-2.72,1.84-3.94c1.22-1.95,2.6-3.79,3.97-5.64c1.56-2.11,3.2-4.15,4.78-6.25c0.8-1.06,1.59-2.12,2.28-3.25
			C217.57,478.97,219.29,477.6,221.11,476.32z"/>
		<path class="st14" d="M511.5,0c-0.19,0.54-0.27,1.17-0.6,1.61c-1.7,2.34-3.53,4.6-5.2,6.97c-1.48,2.09-2.76,4.32-4.23,6.43
			c-1.13,1.63-2.42,3.15-3.62,4.73c-0.88,1.15-2.13,0.85-3.22,0.68c-1.16-0.18-2.39-0.77-2.52-2.08c-0.12-1.18-0.1-2.61,0.47-3.58
			c2.27-3.84,4.79-7.53,7.21-11.29c0.7-1.09,1.84-1.97,1.71-3.47C504.83,0,508.17,0,511.5,0z"/>
		<path class="st14" d="M536,0c-0.34,0.74-0.55,1.57-1.02,2.21c-3.28,4.36-6.63,8.67-9.92,13.03c-0.59,0.79-0.99,1.72-1.49,2.58
			c-1.39,2.39-2.91,3.1-5.57,2.68c-1.13-0.18-1.84-0.8-1.95-1.93c-0.18-1.94,0.14-3.7,1.42-5.36c2.88-3.72,5.59-7.57,8.32-11.4
			c0.37-0.51,0.48-1.21,0.71-1.82C529.67,0,532.83,0,536,0z"/>
		<path class="st14" d="M488,0c-1.19,1.76-2.3,3.58-3.58,5.27c-2.59,3.44-5.26,6.81-7.91,10.2c-0.56,0.71-1.13,1.45-1.81,2.04
			c-1.4,1.2-2.87,1.26-4.36,0.3c-1.17-0.75-1.58-2.04-1.29-3.72c0.38-2.2,2.12-3.51,3.3-5.17c1.64-2.28,3.46-4.44,5.13-6.7
			c0.47-0.64,0.69-1.47,1.02-2.21C481.67,0,484.83,0,488,0z"/>
		<path class="st2" d="M62.29,173.56c-2.2-6.15-6.92-9.78-12.53-12.48c-1.86-0.89-3.81-1.59-5.83-2.42c0.06-0.76,0.03-1.51,0.2-2.22
			c2.13-9.11,5.53-17.65,12.23-24.4c3.84-3.88,8.12-7.33,12.22-10.95c3.61-3.18,7.37-6.19,10.85-9.5
			c5.83-5.56,11.68-11.11,16.41-17.7c1.33,1.53,0.67,3.35,0.53,4.98c-0.29,3.37-0.68,6.75-1.43,10.04c-0.91,4-1.52,8.05-2.66,12.03
			c-0.95,3.32-2.24,6.5-3.19,9.81c-0.74,2.57-1.96,5-2.94,7.5c-0.75,1.9-1.4,3.84-2.2,5.72c-0.31,0.72-1.06,1.27-1.31,2
			c-1.83,5.34-5.13,9.86-8,14.64c-2.67,4.44-6.44,7.89-10.05,11.5C63.96,172.74,63.06,173.09,62.29,173.56z"/>
		<path class="st2" d="M508.13,426.49c2.98,4.68,6.7,8.66,11.56,11.95c-0.64,0.86-1.2,1.64-1.8,2.39
			c-4.06,5.02-8.84,9.22-14.25,12.75c-3.79,2.48-7.87,4.32-12.08,5.84c-8.75,3.18-16.96,1.42-24.39-3.67
			c-4.08-2.8-7.63-6.38-11.42-9.6c0.51-0.23,1.21-0.33,1.5-0.72c1.41-1.9,3.56-2.66,5.46-3.83c0.55-0.34,0.89-1.04,1.32-1.58
			c2.19-1.13,4.35-2.31,6.57-3.39c5.42-2.65,10.84-5.32,16.67-7.04c1.65-0.49,3.33-0.61,4.97-0.97
			C497.48,427.43,502.82,427.06,508.13,426.49z"/>
		<path class="st10" d="M586.23,424.1c-3.49,2.39-6.88,4.94-10.49,7.13c-5.47,3.32-11.17,6.21-17.15,8.55
			c-10.61,4.15-21.13,3.66-31.6-0.49c-0.99-0.39-1.91-0.99-3.08-1.61c0.82-1.31,1.71-2.49,2.35-3.79c1.27-2.6,2.41-5.26,3.6-7.9
			c5.58,0.01,11.15,0.06,16.73,0c2.52-0.03,5.04-0.37,7.57-0.43c1.56-0.03,3.13,0.21,4.69,0.32c0.58,0.04,1.16,0.11,1.74,0.08
			c2.64-0.13,5.29-0.38,7.93-0.43c5.19-0.1,10.35-0.52,15.47-1.42C584.72,423.98,585.48,424.1,586.23,424.1z"/>
		<path class="st11" d="M595.51,384.93c1.81-0.43,3.27-0.77,4.71-1.11c1.43-0.34,2.63-0.04,3.52,1.2c0.93,1.3,0.61,2.65-0.25,3.69
			c-1.26,1.52-2.76,2.84-4.19,4.22c-0.48,0.46-1.03,0.84-1.56,1.23c-0.68,0.5-1,1.15-0.64,1.95c0.77,1.66,0.23,2.94-1.15,3.89
			c-1.17,0.81-2.5,0.38-4.1-1.16c-0.05-0.05-0.14-0.05-0.41-0.12c-1.11,0.77-2.35,1.6-3.55,2.47c-1.04,0.76-2.03,0.94-3.2,0.2
			c-1.14-0.72-1.5-1.71-1.4-2.96c0.13-1.49,0.27-2.97,0.43-4.68c-0.67-0.27-1.33-0.55-2-0.82c-0.69-0.27-1.44-0.44-2.08-0.81
			c-0.87-0.5-1.61-2.21-1.29-3.03c0.4-1.03,1.05-1.88,2.31-2.01c1.48-0.15,2.96-0.41,4.45-0.5c1.31-0.07,2.23-0.56,2.66-1.83
			c0.61-1.8,1.3-3.58,1.82-5.4c0.55-1.93,1.23-2.71,2.72-2.68c1.55,0.03,2.47,0.81,2.64,2.37
			C595.16,380.93,595.31,382.83,595.51,384.93z"/>
		<path class="st9" d="M679.52,286c0.11-0.12,0.3-0.24,0.31-0.37c0.3-3.19,2.41-4.92,4.99-6.29c2.89-1.53,6.61-1.07,8.97,1.22
			c1.12,1.08,2.12,2.29,3.17,3.44c0.21,2.05,0.38,4.06-0.5,6.05c-0.79,1.8-1.89,3.3-3.36,4.56c-3.05,2.61-8.67,1.7-11.32-1.7
			C680.19,290.9,679.25,288.64,679.52,286z"/>
		<path class="st9" d="M399.98,401.48c-0.98,1.19-1.77,2.45-3.04,3.49c-3.25,2.67-9.56,2.28-12.17-3.49c-0.1-0.22-0.26-0.5-0.21-0.7
			c0.58-2.24-0.56-4.77,1.13-6.85c0.27-0.34,0.22-0.94,0.31-1.42c2.23-1.39,4.45-2.75,7.14-3.13c2.26-0.32,5.28,1.32,6.53,3.24
			c1.12,1.71,1.57,3.45,1.3,5.38C400.81,399.18,400.32,400.32,399.98,401.48z"/>
		<path class="st15" d="M213.51,40.91c-0.04,3.3-1.59,5.27-5.23,6.67c-2.5,0.96-5.38,0.28-7.23-1.83c-1.75-2-1.3-4.29-0.21-6.29
			c1.41-2.58,3.45-4.71,6.52-5.32c1.68-0.34,3.22-0.43,4.41,1.72C213.27,38.57,213.54,38.72,213.51,40.91z"/>
		<path class="st15" d="M226.52,27.31c-0.08,3.79-1.54,6.04-4.23,7.48c-1.96,1.06-3.93,0.45-5.08-1.49
			c-0.29-0.49-0.39-1.14-0.76-1.53c-1.25-1.31-2.38-2.72-1.69-4.6c1.03-2.83,2.78-5.03,6.02-5.51c1.62-0.24,4.07,0.97,4.76,2.53
			C226.07,25.37,226.33,26.67,226.52,27.31z"/>
		<path class="st12" d="M152.43,22.41c-1.1-0.1-3.09-0.21-5.05-0.5c-1.32-0.19-2.35-1.47-2.43-2.75c-0.08-1.34,0.68-2.16,1.81-2.7
			c0.15-0.07,0.31-0.15,0.47-0.18c3.94-0.72,7.91-1.09,11.87-0.23c1.71,0.37,2.18,1.17,2.23,2.83c0.05,1.73-0.54,2.7-2.31,3
			C157.15,22.21,155.23,22.21,152.43,22.41z"/>
		<path class="st12" d="M124.57,23.15c-1.53-0.16-2.87-0.56-3.65-2.1c-1.01-1.98-0.04-4.16,2.16-4.49c1.13-0.17,2.3-0.08,3.45-0.11
			c2.49,0.07,4.98,0.07,7.46,0.23c0.94,0.06,2.08,0.28,2.72,0.87c0.65,0.59,1.21,1.81,1.07,2.62c-0.24,1.32-1.36,2.32-2.77,2.55
			c-1.47,0.24-2.98,0.3-4.47,0.35C128.56,23.14,126.56,23.13,124.57,23.15z"/>
		<path class="st13" d="M176.7,23.18c-1.88-0.18-3.79-0.21-5.64-0.57c-1.75-0.34-2.47-1.42-2.41-2.95c0.05-1.36,0.82-2.3,2.39-2.75
			c0.71-0.2,1.46-0.28,2.19-0.34c2.39-0.19,4.78-0.49,7.17-0.47c2.37,0.02,4.08,2.48,3.48,4.67c-0.31,1.15-0.94,1.93-2.2,2.01
			c-1.65,0.1-3.31,0.17-4.96,0.25C176.72,23.08,176.71,23.13,176.7,23.18z"/>
		<path class="st13" d="M136.8,28.81c0.97-0.19,1.93-0.48,2.9-0.53c1.71-0.1,3.44-0.22,5.13-0.01c0.87,0.11,1.95,0.67,1.98,1.92
			c0.02,1.42,0.04,2.87-1.41,3.74c-0.36,0.21-0.72,0.53-1.1,0.56c-3.04,0.22-6.1,0.64-9.13,0.48c-2.11-0.11-3.41-2.71-2.75-4.44
			c0.47-1.24,1.36-1.85,2.63-1.93c0.57-0.04,1.15,0.04,1.73,0.07C136.78,28.71,136.79,28.76,136.8,28.81z"/>
		<path class="st12" d="M160.19,35.08c-2.22-0.08-4.37-0.3-6.2-1.66c-1.8-1.34-1.84-3.45-0.13-4.86c0.31-0.25,0.7-0.5,1.08-0.55
			c2.89-0.39,5.78-0.54,8.58,0.5c0.53,0.2,1.05,0.53,1.45,0.92c1.77,1.72,1.39,4.09-0.9,4.95
			C162.86,34.83,161.49,34.86,160.19,35.08z"/>
		<path class="st15" d="M229.84,41.27c-0.77,3.88-1.92,5.51-3.87,5.58c-2.86,0.1-4.63-1.26-5.31-4.09
			c-0.43-1.76,0.54-3.84,2.13-4.58C225.23,37.04,227.08,37.83,229.84,41.27z"/>
		<path class="st16" d="M95.95,65.56c-3.26-0.92-6.7-1.37-9.5-3.53c2.65-1.21,5.31-2.42,7.96-3.62
			C94.93,60.79,95.44,63.17,95.95,65.56z"/>
		<path class="st17" d="M92.03,187.65c-0.29,1.99-0.52,3.46-2.14,4.17c-1.6,0.71-3.06-0.05-3.28-1.76
			c-0.18-1.44,0.11-2.78,1.02-3.96c0.76-0.98,2.04-1.33,2.85-0.85C91.32,185.75,91.67,187.04,92.03,187.65z"/>
		<path class="st17" d="M474.7,391.79c-0.27,2.25-2.2,4.16-3.99,3.95c-1.37-0.16-2.26-1.25-2.09-2.55c0.27-1.96,2.36-3.85,4.08-3.68
			C474.09,389.65,474.85,390.52,474.7,391.79z"/>
		<path class="st17" d="M79.95,192.56c-0.05,1.8-1.45,3.55-2.86,3.57c-1.42,0.02-2.73-1.6-2.67-3.31c0.06-1.72,1.42-3.42,2.69-3.37
			C78.84,189.52,80,190.79,79.95,192.56z"/>
		<path class="st18" d="M83.86,178.46c-0.06,1.99-0.62,2.68-2.15,3.19c-1.64,0.54-3.5,0.24-4.19-0.68c-0.67-0.9-0.31-2.78,0.69-3.62
			c1.04-0.88,3.6-1.05,4.7-0.19C83.43,177.55,83.71,178.25,83.86,178.46z"/>
		<path class="st17" d="M715.69,356.19c0.35,1.59-0.36,2.86-1.2,4.11c-0.56,0.83-1.25,1.27-2.28,1.03
			c-0.95-0.22-1.79-0.69-1.89-1.69c-0.1-1.02,0.11-2.07,0.18-3.11c0.05-0.06,0.1-0.13,0.16-0.19
			C712.83,354.04,713.39,354.02,715.69,356.19z"/>
		<path class="st18" d="M706.43,353.25c-1.64,0.04-3.16-1.44-3.19-3.1c-0.03-1.5,1.2-2.55,3-2.57c1.62-0.02,3.15,1.28,3.2,2.79
			C709.5,352.23,708.32,352.96,706.43,353.25z"/>
		<path class="st18" d="M165.25,85.48c0.01,1.78-1.18,2.75-3.36,2.73c-1.81-0.02-2.75-0.96-2.73-2.73c0.02-1.61,1.11-2.6,2.93-2.64
			C164.05,82.8,165.24,83.79,165.25,85.48z"/>
		<path class="st18" d="M168.01,77.85c-1.38-0.05-2.72-1.28-2.64-2.43c0.13-1.88,1.71-3.13,3.86-3.05c1.59,0.06,2.28,0.88,2.2,2.63
			C171.35,76.7,169.89,77.92,168.01,77.85z"/>
		<path class="st18" d="M703.43,358.62c1.52,3.14,0.08,5.36-3.37,5.29c-1.18-0.03-1.92-0.43-1.97-1.71
			c-0.03-0.75-0.07-1.49-0.11-2.24c1.11-1.12,2.48-1.57,4.02-1.58c0.17,0.01,0.35,0.02,0.52,0.03
			C702.82,358.48,703.13,358.55,703.43,358.62z"/>
		<path class="st19" d="M467.43,86.1c0.02,1.26-1.19,2.63-2.37,2.68c-1.42,0.07-2.81-1.27-2.9-2.78c-0.07-1.35,0.84-2.31,2.23-2.35
			C466.23,83.6,467.41,84.55,467.43,86.1z"/>
		<path class="st2" d="M702.52,358.41c-0.17-0.01-0.35-0.02-0.52-0.03C702.17,358.39,702.35,358.4,702.52,358.41z"/>
		<path class="st6" d="M223.6,473.05c-0.51-6.06-1.63-11.98-4.77-17.29c-1.46-2.48-3.28-4.75-4.94-7.11
			c4.65-0.33,9.28-0.39,13.79,1.15c0.93,0.32,1.93,0.51,2.91,0.62c4.35,0.47,7.97,2.62,11.5,4.95c1.02,0.67,1.99,1.41,2.98,2.12
			c-0.42,0.46-0.76,1.09-1.28,1.36c-4.19,2.16-7.94,4.95-11.69,7.77c-2.3,1.73-4.63,3.38-6.56,5.54
			C225.09,472.63,224.25,472.75,223.6,473.05z"/>
		<path class="st9" d="M374.57,414.47c4.31,0.01,7.1,1.85,9.2,4.72c1.26,1.73,1.05,3.88,0.42,5.76c-1.14,3.44-3.16,6.18-6.93,7.22
			c-1.11,0.3-2.1,1.06-3.22,1.28c-3.45,0.67-5.84-1.37-7.02-4.18c-1.93-4.61-0.31-10.55,3.65-13.65
			C371.99,414.59,373.55,414.41,374.57,414.47z"/>
		<path class="st14" d="M335.51,474.49c-2.85,4.8-6.71,8.81-10.27,13.05c-0.69,0.82-1.22,1.77-1.85,2.65
			c-1.4,1.97-3.7,2.42-5.65,1.12c-1.39-0.93-1.59-4.29-0.31-5.92c0.87-1.11,1.82-2.15,2.75-3.2c2.8-3.17,5.6-6.34,8.41-9.49
			c0.8-0.9,1.65-1.76,2.47-2.64c0.73-0.13,1.46-0.31,2.19-0.37c1.83-0.15,2.84,0.82,2.7,2.64
			C335.89,473.04,335.66,473.76,335.51,474.49z"/>
		<path class="st15" d="M362.35,396.02c3.63,0.15,7.33,3.71,7.55,7.03c0.02,0.24,0.03,0.54-0.09,0.72c-1.59,2.34-2.65,5.12-5.92,5.9
			c-1.34,0.32-2.41,0.08-3.21-0.68c-1.43-1.36-2.68-2.91-3.88-4.48c-1.14-1.5-1.04-3.15,0.05-4.64
			C358.29,397.9,360.09,396.39,362.35,396.02z"/>
		<path class="st20" d="M365.21,492c-2.92,0.01-4.06-1.13-3.66-3.84c0.19-1.27,0.6-2.69,1.39-3.65c2.26-2.73,4.5-5.51,7.44-7.6
			c2.44-1.74,4.98-1.04,5.31,1.62c0.1,0.82-0.16,1.87-0.63,2.54c-2.26,3.24-4.64,6.41-7.02,9.57
			C367.31,491.61,366.34,492.26,365.21,492z"/>
		<path class="st20" d="M345.5,467.46c-2.65,0.06-4.41-1.23-4.78-3.21c-0.12-0.64,0.01-1.58,0.41-2.03c2.6-2.9,5.29-5.72,7.99-8.52
			c0.45-0.46,1.11-0.71,1.65-1.09c1.13-0.77,2.18-0.52,3.21,0.21c1.04,0.73,1.14,1.81,0.96,2.9c-0.36,2.21-1.79,3.89-3.09,5.59
			c-1.25,1.64-2.62,3.2-4.08,4.66C347.01,466.72,345.95,467.18,345.5,467.46z"/>
		<path class="st20" d="M362.95,467.48c-2.73-0.06-4.53-2.69-3.74-5.1c0.43-1.31,1.1-2.66,2-3.68c1.37-1.54,2.89-3.06,4.64-4.1
			c1.25-0.75,3-1.02,4.49-0.93c1.82,0.11,2.8,2.64,1.75,4.33c-0.99,1.59-1.89,3.26-3.58,4.39c-1.04,0.7-1.7,2-2.5,3.05
			C365.12,466.61,364.05,467.44,362.95,467.48z"/>
		<path class="st20" d="M346.95,489.99c-0.39,0.13-0.79,0.22-1.16,0.38c-1.73,0.72-3.62,0.45-4.77-0.7
			c-0.75-0.76-0.78-3.37,0.02-4.69c0.42-0.7,0.98-1.31,1.47-1.96c0.47-0.29,1.11-0.47,1.39-0.89c1.73-2.58,4.36-3.98,6.86-5.49
			c2.88,1.42,3.46,2.33,2.74,4.45c-0.29,0.84-0.71,1.69-1.26,2.39C350.53,485.68,348.72,487.82,346.95,489.99z"/>
		<path class="st6" d="M57.51,457.61c-0.73,0.39-1.41,0.89-2.18,1.14c-5.55,1.83-10.19,5.15-14.69,8.73
			c-0.32,0.25-0.71,0.4-1.07,0.59c-0.06-0.06-0.12-0.13-0.18-0.19c0.38-0.8,0.65-1.68,1.15-2.39c2.75-3.88,5.56-7.72,8.35-11.57
			c0.2,1.12,1.07,0.99,1.89,1.1C53.22,455.35,55.59,455.9,57.51,457.61z"/>
		<path class="st15" d="M258.52,404.35c-0.26,1.01-0.55,2.65-1.13,4.18c-0.64,1.69-2.78,2.25-4.32,1.32
			c-3.84-2.32-3.91-7.22-0.08-9.47c1.2-0.71,2.55-0.56,3.81,0.05C258.19,401.09,258.52,402.33,258.52,404.35z"/>
		<path class="st15" d="M58.6,332.18c1.03,0.54,1.98,0.79,2.56,1.4c2.16,2.28,1.03,7.39-1.87,8.7c-0.41,0.19-1.03,0.25-1.42,0.08
			c-2.47-1.07-4.12-2.69-3.11-5.78c0.28-0.86,0.5-1.85,1.08-2.47C56.56,333.31,57.63,332.83,58.6,332.18z"/>
		<path class="st15" d="M250.5,389.06c-0.03,2.04-2.69,4.41-4.94,4.4c-1.48-0.01-3.36-2.44-3.41-4.4c-0.05-2.17,1.77-3.62,4.49-3.57
			C249.06,385.54,250.53,386.9,250.5,389.06z"/>
		<path class="st15" d="M61.6,327c-2.1-0.06-3.63-1.7-3.6-3.87c0.03-1.68,1.79-4.09,2.95-4.05c3.07,0.1,4.96,1.73,5,4.31
			C65.99,324.99,63.5,327.05,61.6,327z"/>
		<path class="st13" d="M270.46,437.2c-0.07,1.7-1.73,3.85-3.34,4.2c-1,0.22-1.98,0.17-2.69-0.79c-0.89-1.19-1.42-2.5-0.85-3.92
			c0.33-0.81,0.93-1.58,1.59-2.18c0.99-0.9,2.15-1.68,3.6-0.95C269.89,434.12,270.53,435.58,270.46,437.2z"/>
		<path class="st15" d="M49.44,328.5c-2.11-0.01-3.97-1.72-3.91-3.58c0.05-1.67,2.23-3.87,3.86-3.91c2.15-0.05,4.11,1.76,4.09,3.78
			C53.46,326.89,51.69,328.52,49.44,328.5z"/>
		<path class="st8" d="M286.41,433c-0.04,2.1-1.88,3.8-4.1,3.78c-1.9-0.01-3.26-1.56-3.19-3.62c0.07-1.97,2.16-4.02,4.04-3.96
			C284.74,429.27,286.44,431.25,286.41,433z"/>
		<path class="st21" d="M241.5,406.32c-0.01,2.27-1.79,4.13-3.98,4.15c-1.8,0.02-2.97-1.39-3.04-3.48
			c-0.07-2.41,0.68-3.85,4.17-3.98C240.96,402.93,241.51,403.62,241.5,406.32z"/>
		<path class="st13" d="M265.94,450.53c0.66,1.48-0.09,2.77-0.69,3.98c-0.66,1.35-3.4,1.91-4.44,0.31c-0.49-0.75-0.9-1.56-1.34-2.34
			c0.03-0.16,0.08-0.32,0.08-0.48c0-1.56,0.79-2.75,2.17-3.22c1.38-0.47,2.73,0.01,3.72,1.21
			C265.59,450.18,265.77,450.35,265.94,450.53z"/>
		<path class="st13" d="M298.76,440.67c1.71-0.01,3.08,1.38,3.14,3.19c0.07,1.86-1.58,3.44-3.52,3.38c-1.72-0.05-3.13-1.53-3.1-3.25
			C295.31,442.39,297.11,440.68,298.76,440.67z"/>
		<path class="st13" d="M282.44,450.69c0.46,0.34,0.95,0.66,1.39,1.03c1.2,1.02,1.61,2.33,1.16,3.53c-0.5,1.31-2.12,2.39-3.53,2.3
			c-1.14-0.07-2.15-0.51-2.59-1.63c-0.52-1.3-0.51-2.63,0.49-3.73c0.49-0.54,1.14-0.93,1.73-1.39
			C281.54,450.77,281.99,450.73,282.44,450.69z"/>
		<path class="st13" d="M155.61,367.12c-0.46,1.72-0.72,3.11-2,3.99c-1.33,0.91-2.51,0.87-3.59-0.17c-1.08-1.05-1.24-2.26-0.31-3.55
			c0.52-0.73,1.17-1.4,1.87-1.96c0.81-0.65,1.87-1.01,2.74-0.27C154.94,365.68,155.27,366.57,155.61,367.12z"/>
		<path class="st17" d="M275.43,450c-0.54,1.02-0.62,2.4-2.29,2.46c-1.63,0.06-2.85-0.42-3.55-1.95c-0.01-0.57-0.08-1.16-0.02-1.72
			c0.22-1.93,1.62-3.18,3.42-3.11c1.56,0.06,2.45,1.25,2.48,3.34C275.48,449.34,275.45,449.67,275.43,450z"/>
		<path class="st17" d="M291.47,450.94c-1.29,0.49-2.49,0.34-3.58-0.52c-0.97-2.77-0.61-3.84,1.43-5.15
			c1.21-0.78,2.18-0.42,3.16,0.28c1,0.71,1.32,1.79,0.84,2.84C292.89,449.33,292.1,450.1,291.47,450.94z"/>
		<path class="st17" d="M281.53,440.65c1.54-0.01,2.73,1.27,2.69,2.93c-0.03,1.56-1.46,2.84-3.17,2.83
			c-1.49-0.01-2.85-1.17-2.93-2.49C278.05,442.31,279.76,440.67,281.53,440.65z"/>
		<path class="st17" d="M293.74,431.11c1.64,0.21,2.65,1.51,2.4,3.11c-0.28,1.84-1.46,3.04-2.8,2.83c-1.77-0.28-3.01-1.85-2.75-3.49
			C290.84,431.95,292.17,430.91,293.74,431.11z"/>
		<path class="st18" d="M144.98,362.46c-1.28,0-2.21-1.01-2.22-2.43c-0.01-1.63,1.94-3.39,3.67-3.32c1.08,0.04,2.32,1.35,2.37,2.47
			C148.86,360.55,146.63,362.46,144.98,362.46z"/>
		<path class="st19" d="M142.34,373.38c-1.27-0.01-2.61-1.28-2.63-2.49c-0.02-1.14,1.79-2.76,3.07-2.74
			c1.15,0.01,2.6,1.26,2.59,2.23C145.35,371.98,143.92,373.4,142.34,373.38z"/>
		<path class="st19" d="M260.28,351.39c1.44-1.8,2.33-2.23,3.55-1.71c1.01,0.43,1.57,1.31,1.52,2.36c-0.05,1.19-1.08,1.62-2.07,1.85
			C261.96,354.2,261.25,353.58,260.28,351.39z"/>
		<path class="st9" d="M687.95,258.66c0.18,2.68-1.25,4.75-2.97,6.47c-0.82,0.82-2.36,1.02-3.62,1.29
			c-3.91,0.84-7.38-1.75-7.87-5.77c-0.07-0.57-0.11-1.16-0.28-1.71c-0.4-1.28-0.04-2.25,1-3.06c0.65-0.51,1.31-1.05,1.82-1.7
			c1.48-1.91,3.57-2.61,5.79-3.05c1.66-0.33,4.14,1.02,4.81,2.57c0.43,0.99,0.97,1.94,1.28,2.97
			C688.11,257.29,687.95,258,687.95,258.66z"/>
		<path class="st12" d="M693.74,61.54c0.76-1.24,1.45-2.54,2.3-3.71c1.07-1.47,2.74-2.14,4.44-2.21c1.8-0.08,3.33,1.05,4.37,2.4
			c1.58,2.04,2.3,4.33,0.78,6.84c-0.42,0.69-0.58,1.53-0.86,2.3c-0.69,0.64-1.36,1.31-2.09,1.92c-2.78,2.33-5.52,1.43-8.12-0.28
			c-0.56-0.37-0.95-1.35-0.98-2.07C693.5,65,693.67,63.27,693.74,61.54z"/>
		<path class="st15" d="M674.98,277.9c0.01,2.9-1.77,5-4.23,5.11c-3.56,0.16-5.81-1.91-6.2-4.8c-0.25-1.86,1.47-4.29,3.52-5.15
			c0.6-0.25,1.26-0.44,1.91-0.53c2.86-0.37,4.61,0.99,4.99,3.87C675.04,276.89,674.98,277.4,674.98,277.9z"/>
		<path class="st13" d="M689.2,63.85c0.15,0.17,0.3,0.33,0.45,0.5c-0.37,1.73-0.75,3.47-1.12,5.2c-0.99,1.4-2.13,2.55-4.01,2.54
			c-0.91-1.02-2.07-0.49-3.14-0.51c-1.3-0.13-1.82-1.13-2.37-2.1c-0.48-1.53-0.23-3.08-0.11-4.62c0.04-0.13,0.1-0.23,0.19-0.33
			c0.89-0.08,0.92-0.76,0.97-1.42c0,0,0.08-0.04,0.08-0.04c0.3-0.32,0.6-0.65,0.9-0.97c0.41-0.1,0.82-0.21,1.23-0.31
			c1.41,0.07,2.82,0.14,4.23,0.21c0.16,0.03,0.31,0.08,0.45,0.16c0.35,0.61,0.71,1.23,1.06,1.84c-0.23,0.21-0.46,0.42-0.69,0.63
			c0.1,0.07,0.2,0.14,0.31,0.21c0.12-0.29,0.24-0.57,0.37-0.86C688.39,63.94,688.8,63.9,689.2,63.85z"/>
		<path class="st15" d="M527.34,84.38c0.53,2.49-0.01,4.51-1.69,6.26c-0.92,0.95-1.88,1.44-3.25,1.4c-2.79-0.08-4.37-1.89-3.86-4.67
			c0.07-0.39,0.25-0.79,0.5-1.1C520.96,83.88,524.37,83.08,527.34,84.38z"/>
		<path class="st15" d="M534.51,93.4c0.01-2.33,1.25-3.34,4.16-3.39c1.84-0.03,3.41,1.8,3.32,3.87c-0.08,1.93-1.82,3.6-3.74,3.6
			C536.22,97.48,534.5,95.6,534.51,93.4z"/>
		<path class="st15" d="M532.28,81.99c-1.45,0-3.23-1.74-3.27-3.19c-0.06-2.41,1.77-4.25,4.19-4.23c1.58,0.01,2.82,1.58,2.79,3.52
			C535.97,80.23,534.3,81.99,532.28,81.99z"/>
		<path class="st13" d="M592.03,68.51c-1.99,0.01-3.22-1.06-3.28-2.88c-0.05-1.46,2.44-3.75,4.04-3.72c1.63,0.03,2.9,1.24,2.91,2.76
			C595.72,66.68,593.98,68.5,592.03,68.51z"/>
		<path class="st13" d="M597.75,51.57c2.95-1.48,4.94-0.48,5.79,2.92c-0.69,1.26-1.59,2.21-3.03,2.69c-1.38,0.46-2.4,0.02-3.33-0.88
			c-0.91-0.88-0.74-1.93-0.28-2.96C597.17,52.74,597.47,52.16,597.75,51.57z"/>
		<path class="st13" d="M569.47,48.99c0.09-0.32,0.15-0.65,0.28-0.95c0.58-1.44,1.45-2.81,3.06-2.93c1.51-0.11,2.47,1.14,3.21,2.39
			c-0.21,0.95-0.19,2.06-0.69,2.82c-0.79,1.22-2.07,1.93-3.64,1.63C570.08,51.64,569.69,50.36,569.47,48.99z"/>
		<path class="st17" d="M582.72,47.1c0.31-0.09,0.63-0.16,0.93-0.26c2.44-0.76,2.94-0.57,4.43,1.67c-0.44,1.14-0.78,2.33-1.36,3.4
			c-0.54,0.99-1.54,1.59-2.72,1.32c-1.35-0.31-2.62-2.08-2.38-3.41C581.79,48.87,582.35,48,582.72,47.1z"/>
		<path class="st17" d="M550.02,55.51c-0.04-1.38-0.21-2.72,1.07-3.81c2.05-1.74,3.95-1.51,5.37,0.81c0.11,1.76-0.34,3.2-2.13,3.97
			C552.58,57.24,551.52,57.02,550.02,55.51z"/>
		<path class="st17" d="M581.21,75.49c-1.98,0.03-3.4-1.21-3.5-3.07c-0.09-1.57,1.53-3.25,3.14-3.25c1.55,0,3.41,1.81,3.45,3.35
			C584.33,73.94,582.75,75.46,581.21,75.49z"/>
		<path class="st17" d="M566.91,56.35c0.04,2.18-1.21,3.66-3.1,3.69c-1.75,0.02-2.75-1.09-2.76-3.06c-0.01-1.98,1.65-3.67,3.58-3.65
			C565.84,53.34,566.88,54.72,566.91,56.35z"/>
		<path class="st18" d="M638.85,106.44c-0.26-0.17-1.12-0.49-1.63-1.1c-0.78-0.94-0.49-2,0.23-2.94c1.14-1.48,3.1-2.12,4.58-1.49
			c1.33,0.56,1.61,1.11,1.28,2.52C642.96,105,641.19,106.38,638.85,106.44z"/>
		<path class="st17" d="M652.61,100.3c1.69,0.04,2.68,0.84,2.71,2.22c0.04,1.93-1.95,3.87-3.84,3.74c-1.58-0.1-2.42-0.99-2.4-2.55
			C649.09,101.85,650.74,100.26,652.61,100.3z"/>
		<path class="st13" d="M569.72,73.14c-0.02,1.99-1.63,3.52-3.69,3.51c-1.15-0.01-2.37-1.39-2.36-2.66c0.02-1.98,1.53-3.7,3.24-3.69
			C568.45,70.3,569.73,71.6,569.72,73.14z"/>
		<path class="st17" d="M555.28,62.95c1.78-0.04,3.15,1.1,3.21,2.68c0.06,1.64-1.28,3.05-2.89,3.02c-2.02-0.03-3.14-0.99-3.15-2.69
			C552.44,64.12,553.51,62.99,555.28,62.95z"/>
		<path class="st17" d="M645.86,94.2c-1.55-0.17-2.46-1.2-2.34-2.65c0.14-1.68,1.8-3.01,3.47-2.8c1.64,0.21,2.61,1.33,2.47,2.83
			C649.32,93.18,647.63,94.4,645.86,94.2z"/>
		<path class="st18" d="M575.49,67.4c-1.58-0.03-2.57-1.09-2.56-2.74c0.01-1.64,1.37-3.05,2.96-3.06c1.23-0.01,2.57,1.46,2.58,2.84
			C578.49,66.15,577.2,67.42,575.49,67.4z"/>
		<path class="st18" d="M578.98,56.35C578.93,57.94,577.74,59,576,59c-1.59,0-2.47-0.88-2.44-2.44c0.03-1.84,1.41-3.11,3.23-2.98
			C578.23,53.68,579.03,54.7,578.98,56.35z"/>
		<path class="st18" d="M700,169.28c0.22-2.04,0.71-2.75,2.16-2.63c2.07,0.16,3.1,0.82,3.13,2.38c0.03,1.58-1.22,2.94-2.72,2.95
			C701,172,699.98,170.92,700,169.28z"/>
		<path class="st19" d="M588.61,60.02c-1.38,0.04-2.99-1.25-2.99-2.41c0-1.27,1.79-2.98,3.17-3.03c1.28-0.05,2.57,1.35,2.59,2.81
			C591.4,58.67,590.02,59.97,588.61,60.02z"/>
		<path class="st19" d="M688.53,69.55c0.37-1.73,0.75-3.47,1.12-5.2c0.19,0.14,0.5,0.24,0.56,0.42
			C690.54,65.84,689.55,68.59,688.53,69.55z"/>
		<path class="st19" d="M678.9,64.86c-0.12,1.54-0.37,3.09,0.11,4.62C677.29,67.88,677.27,66.86,678.9,64.86z"/>
		<path class="st19" d="M686.49,62.01c-1.41-0.07-2.82-0.14-4.23-0.21C684.1,60.73,685.31,60.79,686.49,62.01z"/>
		<path class="st19" d="M688.01,64.01c-0.35-0.61-0.71-1.23-1.06-1.84c1.51-0.46,1.8,0.72,2.25,1.68c-0.4,0.05-0.8,0.1-1.2,0.14
			L688.01,64.01z"/>
		<path class="st19" d="M681.38,71.58c1.07,0.02,2.23-0.51,3.14,0.51C683.37,72.57,682.24,72.9,681.38,71.58z"/>
		<path class="st19" d="M680.06,63.12c-0.05,0.66-0.08,1.33-0.97,1.42C678.94,63.73,679,63.08,680.06,63.12z"/>
		<path class="st19" d="M681.04,62.11c-0.3,0.32-0.6,0.65-0.9,0.97C680.44,62.75,680.74,62.43,681.04,62.11z"/>
		<path class="st22" d="M593.5,422.48c2.64-1.97,5.19-4.09,7.95-5.87c4.83-3.12,10.02-5.56,15.5-7.29c2.74-0.87,5.66-1.17,8.5-1.72
			c-2.26,1.48-4.49,3.01-6.79,4.44c-5.76,3.57-11.66,6.91-18.19,8.88C598.19,421.6,595.82,421.97,593.5,422.48z"/>
		<path class="st14" d="M505.11,29.49c2.96,0.02,4.17,2.25,2.97,4.71c-1.16,2.38-2.59,4.62-3.98,6.88c-1.04,1.68-2.19,3.3-3.32,4.93
			c-0.94,1.37-2.39,1.88-3.81,1.38c-1.13-0.39-1.9-1.66-1.99-3.14c-0.12-1.98,0.14-3.74,1.7-5.24c0.92-0.89,1.6-2.1,2.15-3.28
			c1.03-2.19,2.88-3.63,4.52-5.26C503.95,29.89,504.85,29.63,505.11,29.49z"/>
		<path class="st14" d="M470.87,45.5c-0.56-0.17-0.95-0.31-1.35-0.41c-2.47-0.62-3.47-2.7-2.39-5.03c1.81-3.89,4.48-7.13,7.63-9.99
			c0.53-0.48,1.26-0.84,1.96-1c2.14-0.49,3.38,0.57,3.26,2.79c-0.05,0.89-0.17,1.88-0.59,2.64C477.15,38.55,474.8,42.54,470.87,45.5
			z"/>
		<path class="st14" d="M483.45,50.51c2.48-0.06,3.85,1.7,3.13,3.74c-0.74,2.1-1.73,4.15-2.83,6.09c-1.02,1.79-2.19,3.54-3.56,5.08
			c-2.62,2.93-4.51,2.5-6.06,0.17c-0.43-0.65-0.55-1.8-0.31-2.56c0.49-1.56,1.1-3.18,2.06-4.48c1.82-2.46,3.88-4.75,5.92-7.03
			C482.31,50.95,483.15,50.69,483.45,50.51z"/>
		<path class="st17" d="M597.48,46.38c-2.17,0.02-3.47-1.24-3.44-3.34c0.02-1.56,1.39-2.88,3.05-2.94c1.65-0.05,3.2,1.58,3.25,3.44
			C600.41,45.54,599.59,46.36,597.48,46.38z"/>
		<path class="st17" d="M561.77,44.98c-2.04,0.01-2.91-0.89-2.97-3.1c-0.04-1.54,1.42-3.06,2.95-3.08c1.4-0.01,3.34,1.81,3.38,3.17
			C565.18,43.41,563.43,44.97,561.77,44.98z"/>
		<path class="st17" d="M578.86,36.72c0.01,2-0.8,2.75-2.95,2.71c-1.41-0.02-3.16-1.68-3.16-2.99c0-1.29,1.58-3.01,2.81-3.06
			C577.34,33.3,578.85,34.83,578.86,36.72z"/>
		<path class="st17" d="M588.88,36.27c-0.02,1.47-1.73,3.14-3.27,3.16c-1.54,0.03-2.98-1.25-3.02-2.68
			c-0.05-1.66,1.65-3.4,3.28-3.36C587.75,33.45,588.9,34.54,588.88,36.27z"/>
		<path class="st11" d="M276.63,42.65c2.06-0.89,3.86-1.73,5.71-2.46c1.89-0.74,2.53-0.56,3.48,0.74c0.85,1.16,0.77,2.21-0.15,3.65
			c-1.3,2.02-2.54,4.08-3.81,6.13c-0.62,1.01-0.68,1.97,0.06,3c0.77,1.08,1.44,2.22,2.12,3.36c1.19,1.99,0.31,4.54-1.71,4.66
			c-0.88,0.05-1.87-0.43-2.68-0.9c-0.51-0.3-0.77-1.04-1.39-1.94c-0.85,1.48-1.4,2.37-1.89,3.3c-0.6,1.15-1.3,2.16-2.76,2.18
			c-1.41,0.02-1.93-1.03-2.54-2.06c-0.66-1.13-0.96-2.26-0.66-3.56c0.14-0.63,0.1-1.3,0.15-2.17c-0.96-0.33-1.87-0.66-2.79-0.97
			c-0.7-0.24-1.46-0.37-2.11-0.71c-2.26-1.18-2.59-3.38-0.66-5.03c1.06-0.9,2.32-1.62,3.59-2.2c1.14-0.53,1.67-1.21,1.55-2.48
			c-0.09-0.99-0.05-1.99-0.01-2.99c0.08-1.83,1.16-3.16,2.66-3.38c1.12-0.16,2.61,0.88,3.21,2.26
			C276.19,41.52,276.36,41.97,276.63,42.65z"/>
		<path class="st23" d="M676.38,463.04c-1.33-0.17-2.32-0.21-3.27-0.43c-0.85-0.19-1.52-0.72-1.5-1.71
			c0.02-1.01,0.56-1.94,1.52-1.99c2.36-0.13,4.75-0.09,7.1,0.09c0.52,0.04,1.34,0.94,1.35,1.45c0.01,0.56-0.65,1.43-1.21,1.64
			C678.99,462.59,677.51,462.78,676.38,463.04z"/>
		<path class="st23" d="M707.81,457.4c1.27,0.17,2.74,0.35,4.21,0.59c0.81,0.13,1.39,0.57,1.36,1.48c-0.03,0.9-0.62,1.37-1.42,1.44
			c-2.38,0.21-4.77,0.36-7.16,0.5c-1.21,0.07-1.9-0.67-2-1.76c-0.1-1.04,0.63-1.71,1.6-1.9
			C705.45,457.55,706.53,457.52,707.81,457.4z"/>
		<path class="st23" d="M726.25,439.96c-1.3-0.09-2.13-0.08-2.94-0.23c-1.08-0.19-1.63-1.1-1.45-2.01c0.13-0.64,0.94-1.55,1.53-1.62
			c2.21-0.27,4.46-0.3,6.69-0.28c0.82,0.01,1.84,0.47,1.7,1.45c-0.09,0.67-0.75,1.59-1.37,1.81
			C728.95,439.59,727.37,439.75,726.25,439.96z"/>
		<path class="st23" d="M698.2,450.97c-0.58,0-1.21,0.14-1.73-0.04c-0.63-0.22-1.6-0.65-1.65-1.09c-0.09-0.68,0.34-1.55,0.8-2.14
			c0.29-0.38,1.03-0.55,1.58-0.58c1.57-0.08,3.15-0.16,4.7,0.01c0.57,0.06,1.29,0.73,1.53,1.3c0.36,0.88-0.21,1.69-1.09,1.92
			c-1.34,0.36-2.74,0.52-4.12,0.77C698.22,451.07,698.21,451.02,698.2,450.97z"/>
		<path class="st23" d="M715.08,480.34c-1.14,0-1.91,0.22-2.42-0.05c-0.65-0.34-1.45-1.03-1.52-1.65c-0.07-0.61,0.57-1.78,1.09-1.9
			c1.89-0.45,3.89-1.12,5.79-0.14c0.64,0.33,1.38,1.06,1.49,1.71c0.17,1.03-0.71,1.57-1.71,1.71
			C716.73,480.14,715.67,480.26,715.08,480.34z"/>
		<path class="st23" d="M652.97,478.64c-1.25-0.06-2.18-0.03-3.07-0.18c-0.87-0.15-1.74-0.7-1.51-1.64c0.16-0.67,0.96-1.67,1.5-1.69
			c2.22-0.08,4.46,0.08,6.68,0.33c0.48,0.05,1.23,0.85,1.22,1.28c-0.01,0.47-0.7,1.19-1.21,1.33
			C655.3,478.42,653.96,478.5,652.97,478.64z"/>
		<path class="st23" d="M709.68,489.45c0.79,0.21,1.88,0.35,2.83,0.8c1.01,0.48,1.1,1.65,0.15,2.2c-1.6,0.92-3.36,1.44-5.24,1
			c-0.96-0.23-1.73-0.77-1.7-1.86c0.03-1.04,0.72-1.66,1.7-1.89C708.06,489.55,708.73,489.55,709.68,489.45z"/>
		<path class="st23" d="M736,451.94c-0.79-0.09-1.21-0.09-1.6-0.2c-1.01-0.29-1.88-0.81-1.9-1.99c-0.02-1.23,0.88-1.81,1.94-1.82
			c1.45-0.01,2.97,0.01,4.34,0.42c1.42,0.43,1.47,1.85,0.14,2.55C737.91,451.44,736.76,451.68,736,451.94z"/>
		<path class="st23" d="M736.34,471.15c-2.27-0.13-3.1-0.61-3.18-2c-0.08-1.26,1.03-2.05,3.08-2.05c0.97,0,1.99,0.07,2.89,0.38
			c0.51,0.17,1.16,0.92,1.13,1.38c-0.03,0.59-0.56,1.4-1.09,1.66C738.33,470.94,737.3,470.96,736.34,471.15z"/>
		<path class="st23" d="M685.33,480.83c-0.52-0.09-1.17-0.18-1.81-0.32c-0.9-0.21-1.44-0.76-1.48-1.72
			c-0.04-0.96,0.49-1.52,1.34-1.86c1.17-0.46,4.74,0.39,5.58,1.34c0.73,0.82,0.51,1.84-0.55,2.13
			C687.45,480.64,686.45,480.68,685.33,480.83z"/>
		<path class="st23" d="M740,492.59c-1.48,2.04-4.82,2.57-6.34,1.09c-0.46-0.45-0.8-1.32-0.71-1.92c0.07-0.45,0.9-1.1,1.41-1.13
			C736.41,490.52,738.47,490.62,740,492.59z"/>
		<path class="st23" d="M676.73,493.93c-1.71-0.04-3.08-1.21-3.06-2.22c0.02-0.96,1.18-1.77,2.6-1.71c0.99,0.04,2.02,0.07,2.93,0.37
			c0.52,0.17,1.13,0.88,1.17,1.39c0.04,0.47-0.52,1.24-1.01,1.46C678.4,493.65,677.31,493.79,676.73,493.93z"/>
		<path class="st23" d="M645.37,489.61c0.63,0.06,1.15,0.03,1.61,0.18c0.81,0.27,1.66,0.77,1.41,1.73c-0.15,0.58-0.82,1.25-1.4,1.44
			c-0.99,0.32-2.1,0.44-3.15,0.39c-0.94-0.05-1.7-0.57-1.74-1.72c-0.04-1.05,0.65-1.47,1.46-1.72
			C644.18,489.72,644.85,489.69,645.37,489.61z"/>
		<path class="st21" d="M96.5,69.02c3,1.07,3.34,3.72,3.4,6.26c0.1,4.19-1.09,8.11-3.42,11.65c-0.05-1.91,0.22-3.75,0.74-5.62
			c0.4-1.45,0.17-3.11,0.05-4.66C97.09,74.1,96.77,71.56,96.5,69.02z"/>
		<path class="st12" d="M274.55,464.03c-0.02,2.52-1.75,4.26-4.23,4.28c-1.5,0.01-2.75-1.17-2.75-2.59c0-2.29,2.2-4.96,4.1-4.98
			C273.45,460.73,274.56,462,274.55,464.03z"/>
		<path class="st12" d="M300.5,458.12c-0.01,1.44-1.51,2.7-3.25,2.73c-2.27,0.04-3.68-1.05-3.63-2.79c0.07-2.18,1.49-3.76,3.44-3.82
			C298.77,454.18,300.51,456.16,300.5,458.12z"/>
		<path class="st13" d="M288.98,464.16c-0.04,2.31-0.99,3.36-2.98,3.3c-1.45-0.05-2.11-0.56-2.7-2.1c-0.46-1.2-0.03-2.82,1.06-3.79
			c0.92-0.82,2-1.19,3.2-0.77C288.66,461.17,289.02,462.11,288.98,464.16z"/>
		<path class="st20" d="M55,442.51c-0.3,0.5-0.59,1.01-1.12,1.9c-0.39-1.33,0-1.92,0.55-2.46C54.62,442.13,54.81,442.32,55,442.51z"
			/>
		<path class="st0" d="M55,442.51c-0.19-0.19-0.38-0.37-0.57-0.56C54.62,442.13,54.81,442.32,55,442.51z"/>
		<path class="st0" d="M85.73,406.26c-0.24,0.02-0.47,0.05-0.71,0.07c0.09-0.18,0.18-0.35,0.28-0.53
			C85.44,405.96,85.59,406.11,85.73,406.26z"/>
		<path class="st6" d="M38.94,468.44c0.15-0.19,0.3-0.37,0.45-0.56c0.06,0.06,0.12,0.12,0.18,0.19c-0.17,0.16-0.35,0.32-0.52,0.48
			L38.94,468.44z"/>
		<path class="st6" d="M39.04,468.55c-0.08,0.1-0.17,0.2-0.25,0.3c0.05-0.14,0.1-0.27,0.15-0.41
			C38.94,468.44,39.04,468.55,39.04,468.55z"/>
		<path class="st21" d="M152.51,456.52c3.72-3.19,7.43-6.41,11.18-9.57c5.14-4.33,10.98-7.11,17.69-8.03
			c4.14-0.57,8.32-1.09,12.39,0.07c3.42,0.98,6.74,2.33,10.02,3.72c2.58,1.09,4.49,3.11,6.23,5.27c-0.36,0.16-0.72,0.45-1.09,0.47
			c-3.39,0.2-6.79,0.27-10.18,0.55c-4.61,0.38-9.21,0.85-13.81,1.39c-3.52,0.42-7.03,0.99-10.54,1.55c-3.1,0.49-6.18,1.02-9.27,1.59
			c-0.55,0.1-1.12,0.37-1.58,0.7c-1.27,0.92-2.69,1.1-4.21,1.26c-1.54,0.16-3.05,0.7-4.56,1.12
			C154,456.84,153.24,457.36,152.51,456.52z"/>
		<path class="st22" d="M511.62,426.48c-3.3-4.69-4.94-9.95-5-15.63c-0.04-4.4,1.64-8.32,4.65-11.5c4.07-4.31,8.56-3.46,12.44-0.36
			c3.54,2.83,5.06,6.77,5.47,11.09c0.53,5.52-0.7,10.84-2.42,16.06c-0.98-0.04-1.97-0.14-2.95-0.11
			C519.75,426.15,515.69,426.32,511.62,426.48z"/>
		<path class="st16" d="M651.96,420.46c0.46,1.65,1.05,3.2,1.3,4.8c1.3,8.17-0.43,15.37-7.13,20.79c-1.13,0.91-2.53,1.58-3.91,2.1
			c-2.09,0.79-3.43,0.25-4.71-1.6c-1.32-1.91-1.93-4.12-1.96-6.35c-0.04-3.59,0.49-7.12,2.83-10.11
			C641.89,425.6,646.01,422.02,651.96,420.46z"/>
		<path class="st16" d="M511.62,426.48c4.07-0.15,8.13-0.32,12.2-0.45c0.98-0.03,1.96,0.07,2.95,0.11
			c-1.08,3.61-2.94,6.8-5.24,10.06C517.38,433.64,514.1,430.48,511.62,426.48z"/>
		<path class="st21" d="M671.49,42.98c-6.14,3.44-12.68,5.74-19.65,6.76c-0.79,0.12-1.63-0.03-2.44-0.06
			c1.53-1.12,3.07-2.22,4.59-3.35c4.15-3.11,7.07-7.14,9-11.94c0.86-2.12,1.63-4.32,3.49-5.86c0.11,0.12,0.33,0.26,0.31,0.35
			c-0.46,2.87,1.25,5.02,2.35,7.4C670.14,38.41,670.72,40.73,671.49,42.98z"/>
		<path class="st16" d="M44.95,187.54c-2.01-2.14-2.31-4.98-2.75-7.62c-0.81-4.84-0.99-9.76-0.05-14.64
			c0.23-1.21,0.61-2.4,0.96-3.75c5.76,1.75,10.78,4.31,14.4,9.1c1.38,1.83,2.34,3.83,2.13,6.22c-3.91,2.99-7.81,6.01-11.75,8.96
			C46.99,186.5,45.93,186.97,44.95,187.54z"/>
		<path class="st22" d="M44.95,187.54c0.99-0.56,2.04-1.03,2.95-1.71c3.94-2.95,7.84-5.97,11.75-8.96
			c-0.34,5.45-2.59,9.82-7.31,12.74C49.22,191.52,46.85,190.81,44.95,187.54z"/>
		<path class="st6" d="M691.08,24.59c-3.26,0.19-6.13,0.44-9,0.47c-1.12,0.01-2.33-0.28-3.35-0.76c-2.07-0.98-2.45-3.23-0.91-4.95
			c2.14-2.4,4.56-4.37,8.01-4.4c3.25-0.03,5.53,2.04,5.66,5.29C691.54,21.53,691.26,22.83,691.08,24.59z"/>
		<path class="st3" d="M637.09,20.34c-1.91,2.16-6.91,3.38-9.29,2.27c-1.48-0.69-1.72-1.98-0.56-3.18c0.28-0.29,0.62-0.57,0.98-0.75
			C630.69,17.41,635.08,18.24,637.09,20.34z"/>
		<path class="st6" d="M717.07,36.95c1.98-3.13,3.97-6.27,5.98-9.45c1.57,1.42,1.98,2.9,1.15,4.53c-1.41,2.78-3.66,4.58-6.62,5.43
			C717.41,37.29,717.24,37.12,717.07,36.95z"/>
		<path class="st21" d="M137.59,455.92c-0.23,1.81-0.47,3.62-0.69,5.43c-0.15,1.21-0.75,1.98-2.02,2.16
			c-2.28,0.33-4.46,1.03-6.87,0.68c-4.26-0.62-6.74-3.08-7.89-6.96c-1.49-5.04-0.23-9.75,2.48-14.04c2.01-3.18,5.47-3.63,8.72-1.51
			c3.2,2.08,4.88,5.14,5.59,8.78C137.24,452.25,137.36,454.08,137.59,455.92z"/>
		<path class="st19" d="M687.99,63.99c-0.12,0.29-0.24,0.57-0.37,0.86c-0.1-0.07-0.21-0.14-0.31-0.21c0.23-0.21,0.46-0.42,0.69-0.63
			C688.01,64.01,687.99,63.99,687.99,63.99z"/>
	</g>
</g>
</svg>
